<?xml version="1.0" encoding="UTF-8" standalone="no"?>
<svg
   xmlns:dc="http://purl.org/dc/elements/1.1/"
   xmlns:cc="http://creativecommons.org/ns#"
   xmlns:rdf="http://www.w3.org/1999/02/22-rdf-syntax-ns#"
   xmlns:svg="http://www.w3.org/2000/svg"
   xmlns="http://www.w3.org/2000/svg"
   xmlns:sodipodi="http://sodipodi.sourceforge.net/DTD/sodipodi-0.dtd"
   xmlns:inkscape="http://www.inkscape.org/namespaces/inkscape"
   style="fill-opacity:1; color-rendering:auto; color-interpolation:auto; stroke:black; text-rendering:auto; stroke-linecap:square; stroke-miterlimit:10; stroke-opacity:1; shape-rendering:auto; fill:black; stroke-dasharray:none; font-weight:normal; stroke-width:1; font-family:'Dialog'; font-style:normal; stroke-linejoin:miter; font-size:12; stroke-dashoffset:0; image-rendering:auto;"
   width="454"
   height="406"
   id="svg5970"
   version="1.1"
   inkscape:version="0.48.0 r9654"
   sodipodi:docname="Admin Usecase.svg">
  <metadata
     id="metadata6232">
    <rdf:RDF>
      <cc:Work
         rdf:about="">
        <dc:format>image/svg+xml</dc:format>
        <dc:type
           rdf:resource="http://purl.org/dc/dcmitype/StillImage" />
      </cc:Work>
    </rdf:RDF>
  </metadata>
  <sodipodi:namedview
     pagecolor="#ffffff"
     bordercolor="#666666"
     borderopacity="1"
     objecttolerance="10"
     gridtolerance="10"
     guidetolerance="10"
     inkscape:pageopacity="0"
     inkscape:pageshadow="2"
     inkscape:window-width="1440"
     inkscape:window-height="849"
     id="namedview6230"
     showgrid="false"
     inkscape:zoom="0.64778325"
     inkscape:cx="227"
     inkscape:cy="203"
     inkscape:window-x="-2"
     inkscape:window-y="26"
     inkscape:window-maximized="1"
     inkscape:current-layer="svg5970" />
  <!--Generated by the Batik Graphics2D SVG Generator-->
  <defs
     id="genericDefs">
    <defs
       id="defs1">
      <clipPath
         id="clipPath1"
         clipPathUnits="userSpaceOnUse">
        <path
           id="path5977"
           d="M-3 -3 L37 -3 L37 67 L-3 67 L-3 -3 Z" />
      </clipPath>
      <clipPath
         id="clipPath2"
         clipPathUnits="userSpaceOnUse">
        <path
           id="path5980"
           d="M-3 -3 L177 -3 L177 87 L-3 87 L-3 -3 Z" />
      </clipPath>
      <clipPath
         id="clipPath3"
         clipPathUnits="userSpaceOnUse">
        <path
           id="path5983"
           d="M-3 -3 L167 -3 L167 87 L-3 87 L-3 -3 Z" />
      </clipPath>
      <clipPath
         id="clipPath4"
         clipPathUnits="userSpaceOnUse">
        <path
           id="path5986"
           d="M-3 -3 L147 -3 L147 87 L-3 87 L-3 -3 Z" />
      </clipPath>
      <clipPath
         id="clipPath5"
         clipPathUnits="userSpaceOnUse">
        <path
           id="path5989"
           d="M-3 -3 L127 -3 L127 77 L-3 77 L-3 -3 Z" />
      </clipPath>
      <clipPath
         id="clipPath6"
         clipPathUnits="userSpaceOnUse">
        <path
           id="path5992"
           d="M-3 -3 L87 -3 L87 47 L-3 47 L-3 -3 Z" />
      </clipPath>
      <clipPath
         id="clipPath7"
         clipPathUnits="userSpaceOnUse">
        <path
           id="path5995"
           d="M-80 -40 L160 -40 L160 80 L-80 80 L-80 -40 Z" />
      </clipPath>
      <clipPath
         id="clipPath8"
         clipPathUnits="userSpaceOnUse">
        <path
           id="path5998"
           d="M-120 -70 L240 -70 L240 140 L-120 140 L-120 -70 Z" />
      </clipPath>
      <clipPath
         id="clipPath9"
         clipPathUnits="userSpaceOnUse">
        <path
           id="path6001"
           d="M-140 -80 L280 -80 L280 160 L-140 160 L-140 -80 Z" />
      </clipPath>
      <clipPath
         id="clipPath10"
         clipPathUnits="userSpaceOnUse">
        <path
           id="path6004"
           d="M-160 -80 L320 -80 L320 160 L-160 160 L-160 -80 Z" />
      </clipPath>
      <clipPath
         id="clipPath11"
         clipPathUnits="userSpaceOnUse">
        <path
           id="path6007"
           d="M-170 -80 L340 -80 L340 160 L-170 160 L-170 -80 Z" />
      </clipPath>
      <clipPath
         id="clipPath12"
         clipPathUnits="userSpaceOnUse">
        <path
           id="path6010"
           d="M-107 -14 L214 -14 L214 28 L-107 28 L-107 -14 Z" />
      </clipPath>
      <clipPath
         id="clipPath13"
         clipPathUnits="userSpaceOnUse">
        <path
           id="path6013"
           d="M0 0 L196 0 L196 139 L0 139 L0 0 Z" />
      </clipPath>
      <clipPath
         id="clipPath14"
         clipPathUnits="userSpaceOnUse">
        <path
           id="path6016"
           d="M0 0 L211 0 L211 131 L0 131 L0 0 Z" />
      </clipPath>
      <clipPath
         id="clipPath15"
         clipPathUnits="userSpaceOnUse">
        <path
           id="path6019"
           d="M0 0 L246 0 L246 215 L0 215 L0 0 Z" />
      </clipPath>
      <clipPath
         id="clipPath16"
         clipPathUnits="userSpaceOnUse">
        <path
           id="path6022"
           d="M0 0 L268 0 L268 328 L0 328 L0 0 Z" />
      </clipPath>
      <clipPath
         id="clipPath17"
         clipPathUnits="userSpaceOnUse">
        <path
           id="path6025"
           d="M0 0 L124 0 L124 119 L0 119 L0 0 Z" />
      </clipPath>
      <clipPath
         id="clipPath18"
         clipPathUnits="userSpaceOnUse">
        <path
           id="path6028"
           d="M-94 -14 L188 -14 L188 28 L-94 28 L-94 -14 Z" />
      </clipPath>
    </defs>
  </defs>
  <g
     id="g6030"
     style="fill:#ffffff;stroke:#ffffff">
    <rect
       id="rect6032"
       height="406"
       style="stroke:none"
       width="454"
       y="0"
       x="0" />
  </g>
  <g
     id="g6034"
     style="font-size:11px;fill:#7acff5;stroke:#7acff5;font-family:sans-serif"
     transform="translate(40,2)">
    <circle
       sodipodi:ry="7.5"
       sodipodi:rx="7.5"
       sodipodi:cy="7.5"
       sodipodi:cx="14.5"
       d="M 22,7.5 C 22,11.642136 18.642136,15 14.5,15 10.357864,15 7,11.642136 7,7.5 7,3.3578644 10.357864,0 14.5,0 18.642136,0 22,3.3578644 22,7.5 z"
       clip-path="url(#clipPath1)"
       id="circle6036"
       cy="7.5"
       cx="14.5"
       r="7.5"
       style="stroke:none" />
  </g>
  <g
     id="g6038"
     style="font-size:11px;stroke-linecap:butt;stroke-linejoin:round;stroke-miterlimit:0;font-family:sans-serif"
     transform="translate(40,2)">
    <circle
       sodipodi:ry="7.5"
       sodipodi:rx="7.5"
       sodipodi:cy="7.5"
       sodipodi:cx="14.5"
       d="M 22,7.5 C 22,11.642136 18.642136,15 14.5,15 10.357864,15 7,11.642136 7,7.5 7,3.3578644 10.357864,0 14.5,0 18.642136,0 22,3.3578644 22,7.5 z"
       clip-path="url(#clipPath1)"
       id="circle6040"
       cy="7.5"
       cx="14.5"
       r="7.5"
       style="fill:none" />
    <line
       clip-path="url(#clipPath1)"
       id="line6042"
       y2="40"
       style="fill:none"
       y1="15"
       x2="15"
       x1="15" />
    <line
       clip-path="url(#clipPath1)"
       id="line6044"
       y2="24"
       style="fill:none"
       y1="24"
       x2="30"
       x1="0" />
    <line
       clip-path="url(#clipPath1)"
       id="line6046"
       y2="60"
       style="fill:none"
       y1="40"
       x2="0"
       x1="15" />
    <line
       clip-path="url(#clipPath1)"
       id="line6048"
       y2="60"
       style="fill:none"
       y1="40"
       x2="30"
       x1="15" />
  </g>
  <g
     id="g6050"
     style="font-size:11px;fill:#7acff5;stroke:#7acff5;font-family:sans-serif"
     transform="translate(280,12)">
    <ellipse
       sodipodi:ry="40"
       sodipodi:rx="85"
       sodipodi:cy="40"
       sodipodi:cx="85"
       d="M 170,40 C 170,62.09139 131.9442,80 85,80 38.055796,80 0,62.09139 0,40 0,17.90861 38.055796,0 85,0 c 46.9442,0 85,17.90861 85,40 z"
       clip-path="url(#clipPath2)"
       id="ellipse6052"
       cy="40"
       ry="40"
       cx="85"
       rx="85"
       style="stroke:none" />
  </g>
  <g
     id="g6054"
     style="font-size:11px;stroke-linecap:butt;stroke-linejoin:round;stroke-miterlimit:0;font-family:sans-serif"
     transform="translate(280,12)">
    <ellipse
       sodipodi:ry="40"
       sodipodi:rx="85"
       sodipodi:cy="40"
       sodipodi:cx="85"
       d="M 170,40 C 170,62.09139 131.9442,80 85,80 38.055796,80 0,62.09139 0,40 0,17.90861 38.055796,0 85,0 c 46.9442,0 85,17.90861 85,40 z"
       clip-path="url(#clipPath2)"
       id="ellipse6056"
       cy="40"
       ry="40"
       cx="85"
       rx="85"
       style="fill:none" />
  </g>
  <g
     id="g6058"
     style="font-size:11px;fill:#7acff5;stroke:#7acff5;font-family:sans-serif"
     transform="translate(290,112)">
    <ellipse
       sodipodi:ry="40"
       sodipodi:rx="80"
       sodipodi:cy="40"
       sodipodi:cx="80"
       d="M 160,40 C 160,62.09139 124.18278,80 80,80 35.81722,80 0,62.09139 0,40 0,17.90861 35.81722,0 80,0 c 44.18278,0 80,17.90861 80,40 z"
       clip-path="url(#clipPath3)"
       id="ellipse6060"
       cy="40"
       ry="40"
       cx="80"
       rx="80"
       style="stroke:none" />
  </g>
  <g
     id="g6062"
     style="font-size:11px;stroke-linecap:butt;stroke-linejoin:round;stroke-miterlimit:0;font-family:sans-serif"
     transform="translate(290,112)">
    <ellipse
       sodipodi:ry="40"
       sodipodi:rx="80"
       sodipodi:cy="40"
       sodipodi:cx="80"
       d="M 160,40 C 160,62.09139 124.18278,80 80,80 35.81722,80 0,62.09139 0,40 0,17.90861 35.81722,0 80,0 c 44.18278,0 80,17.90861 80,40 z"
       clip-path="url(#clipPath3)"
       id="ellipse6064"
       cy="40"
       ry="40"
       cx="80"
       rx="80"
       style="fill:none" />
  </g>
  <g
     id="g6066"
     style="font-size:11px;fill:#7acff5;stroke:#7acff5;font-family:sans-serif"
     transform="translate(300,222)">
    <ellipse
       sodipodi:ry="40"
       sodipodi:rx="70"
       sodipodi:cy="40"
       sodipodi:cx="70"
       d="M 140,40 C 140,62.09139 108.65993,80 70,80 31.340068,80 0,62.09139 0,40 0,17.90861 31.340068,0 70,0 c 38.65993,0 70,17.90861 70,40 z"
       clip-path="url(#clipPath4)"
       id="ellipse6068"
       cy="40"
       ry="40"
       cx="70"
       rx="70"
       style="stroke:none" />
  </g>
  <g
     id="g6070"
     style="font-size:11px;stroke-linecap:butt;stroke-linejoin:round;stroke-miterlimit:0;font-family:sans-serif"
     transform="translate(300,222)">
    <ellipse
       sodipodi:ry="40"
       sodipodi:rx="70"
       sodipodi:cy="40"
       sodipodi:cx="70"
       d="M 140,40 C 140,62.09139 108.65993,80 70,80 31.340068,80 0,62.09139 0,40 0,17.90861 31.340068,0 70,0 c 38.65993,0 70,17.90861 70,40 z"
       clip-path="url(#clipPath4)"
       id="ellipse6072"
       cy="40"
       ry="40"
       cx="70"
       rx="70"
       style="fill:none" />
  </g>
  <g
     id="g6074"
     style="font-size:11px;fill:#7acff5;stroke:#7acff5;font-family:sans-serif"
     transform="translate(310,332)">
    <ellipse
       sodipodi:ry="35"
       sodipodi:rx="60"
       sodipodi:cy="35"
       sodipodi:cx="60"
       d="M 120,35 C 120,54.329966 93.137085,70 60,70 26.862915,70 0,54.329966 0,35 0,15.670034 26.862915,0 60,0 c 33.137085,0 60,15.670034 60,35 z"
       clip-path="url(#clipPath5)"
       id="ellipse6076"
       cy="35"
       ry="35"
       cx="60"
       rx="60"
       style="stroke:none" />
  </g>
  <g
     id="g6078"
     style="font-size:11px;stroke-linecap:butt;stroke-linejoin:round;stroke-miterlimit:0;font-family:sans-serif"
     transform="translate(310,332)">
    <ellipse
       sodipodi:ry="35"
       sodipodi:rx="60"
       sodipodi:cy="35"
       sodipodi:cx="60"
       d="M 120,35 C 120,54.329966 93.137085,70 60,70 26.862915,70 0,54.329966 0,35 0,15.670034 26.862915,0 60,0 c 33.137085,0 60,15.670034 60,35 z"
       clip-path="url(#clipPath5)"
       id="ellipse6080"
       cy="35"
       ry="35"
       cx="60"
       rx="60"
       style="fill:none" />
  </g>
  <g
     id="g6082"
     style="font-size:11px;fill:#7acff5;stroke:#7acff5;font-family:sans-serif"
     transform="translate(120,82)">
    <ellipse
       sodipodi:ry="20"
       sodipodi:rx="40"
       sodipodi:cy="20"
       sodipodi:cx="40"
       d="M 80,20 C 80,31.045695 62.09139,40 40,40 17.90861,40 0,31.045695 0,20 0,8.954305 17.90861,0 40,0 62.09139,0 80,8.954305 80,20 z"
       clip-path="url(#clipPath6)"
       id="ellipse6084"
       cy="20"
       ry="20"
       cx="40"
       rx="40"
       style="stroke:none" />
  </g>
  <g
     id="g6086"
     style="font-size:11px;stroke-linecap:butt;stroke-linejoin:round;stroke-miterlimit:0;font-family:sans-serif"
     transform="translate(120,82)">
    <ellipse
       sodipodi:ry="20"
       sodipodi:rx="40"
       sodipodi:cy="20"
       sodipodi:cx="40"
       d="M 80,20 C 80,31.045695 62.09139,40 40,40 17.90861,40 0,31.045695 0,20 0,8.954305 17.90861,0 40,0 62.09139,0 80,8.954305 80,20 z"
       clip-path="url(#clipPath6)"
       id="ellipse6088"
       cy="20"
       ry="20"
       cx="40"
       rx="40"
       style="fill:none" />
  </g>
  <g
     id="g6090"
     transform="translate(120,82)"
     style="font-size:11px;font-family:sans-serif">
    <text
       clip-path="url(#clipPath7)"
       id="text6092"
       xml:space="preserve"
       style="stroke:none"
       y="17"
       x="5">Администри</text>
    <text
       clip-path="url(#clipPath7)"
       id="text6094"
       xml:space="preserve"
       style="stroke:none"
       y="31"
       x="16">рование</text>
  </g>
  <g
     id="g6096"
     transform="translate(310,332)"
     style="font-size:11px;font-family:sans-serif">
    <text
       clip-path="url(#clipPath8)"
       id="text6098"
       xml:space="preserve"
       style="stroke:none"
       y="25"
       x="26">Управление</text>
    <text
       clip-path="url(#clipPath8)"
       id="text6100"
       xml:space="preserve"
       style="stroke:none"
       y="39"
       x="29">хранением</text>
    <text
       clip-path="url(#clipPath8)"
       id="text6102"
       xml:space="preserve"
       style="stroke:none"
       y="53"
       x="14">истории файлов</text>
  </g>
  <g
     id="g6104"
     transform="translate(300,222)"
     style="font-size:11px;font-family:sans-serif">
    <text
       clip-path="url(#clipPath9)"
       id="text6106"
       xml:space="preserve"
       style="stroke:none"
       y="30"
       x="37">Назначение</text>
    <text
       clip-path="url(#clipPath9)"
       id="text6108"
       xml:space="preserve"
       style="stroke:none"
       y="44"
       x="14">пользователям прав</text>
    <text
       clip-path="url(#clipPath9)"
       id="text6110"
       xml:space="preserve"
       style="stroke:none"
       y="58"
       x="47">доступа</text>
  </g>
  <g
     id="g6112"
     transform="translate(290,112)"
     style="font-size:11px;font-family:sans-serif">
    <text
       clip-path="url(#clipPath10)"
       id="text6114"
       xml:space="preserve"
       style="stroke:none"
       y="37"
       x="5">Создание учётных записей</text>
    <text
       clip-path="url(#clipPath10)"
       id="text6116"
       xml:space="preserve"
       style="stroke:none"
       y="51"
       x="27">для пользователей</text>
  </g>
  <g
     id="g6118"
     transform="translate(280,12)"
     style="font-size:11px;font-family:sans-serif">
    <text
       clip-path="url(#clipPath11)"
       id="text6120"
       xml:space="preserve"
       style="stroke:none"
       y="44"
       x="30">Создание подгрупп</text>
  </g>
  <g
     id="g6122"
     transform="translate(2,62)"
     style="font-size:11px;font-family:sans-serif">
    <text
       clip-path="url(#clipPath12)"
       id="text6124"
       xml:space="preserve"
       style="stroke:none"
       y="11"
       x="10">Администратор</text>
  </g>
  <g
     id="g6126"
     style="font-size:11px;stroke-linecap:butt;stroke-linejoin:round;stroke-dasharray:4;font-family:sans-serif"
     transform="translate(138,2)">
    <line
       clip-path="url(#clipPath13)"
       id="line6128"
       y2="50"
       style="fill:none"
       y1="85"
       x2="142"
       x1="50" />
    <line
       clip-path="url(#clipPath13)"
       id="line6130"
       y2="48"
       style="fill:none;stroke-dasharray:none"
       y1="50"
       x2="128"
       x1="142" />
    <line
       clip-path="url(#clipPath13)"
       id="line6132"
       y2="59"
       style="fill:none;stroke-dasharray:none"
       y1="50"
       x2="132"
       x1="142" />
  </g>
  <g
     id="g6134"
     style="font-size:11px;stroke-linecap:butt;stroke-linejoin:round;stroke-dasharray:4;font-family:sans-serif"
     transform="translate(150,52)">
    <line
       clip-path="url(#clipPath14)"
       id="line6136"
       y2="50"
       style="fill:none"
       y1="50"
       x2="130"
       x1="50" />
    <line
       clip-path="url(#clipPath14)"
       id="line6138"
       y2="77"
       style="fill:none"
       y1="50"
       x2="157"
       x1="130" />
    <line
       clip-path="url(#clipPath14)"
       id="line6140"
       y2="64"
       style="fill:none;stroke-dasharray:none"
       y1="77"
       x2="153"
       x1="157" />
    <line
       clip-path="url(#clipPath14)"
       id="line6142"
       y2="73"
       style="fill:none;stroke-dasharray:none"
       y1="77"
       x2="144"
       x1="157" />
  </g>
  <g
     id="g6144"
     style="font-size:11px;stroke-linecap:butt;stroke-linejoin:round;stroke-dasharray:4;font-family:sans-serif"
     transform="translate(130,72)">
    <line
       clip-path="url(#clipPath15)"
       id="line6146"
       y2="100"
       style="fill:none"
       y1="50"
       x2="70"
       x1="50" />
    <line
       clip-path="url(#clipPath15)"
       id="line6148"
       y2="161"
       style="fill:none"
       y1="100"
       x2="192"
       x1="70" />
    <line
       clip-path="url(#clipPath15)"
       id="line6150"
       y2="150"
       style="fill:none;stroke-dasharray:none"
       y1="161"
       x2="184"
       x1="192" />
    <line
       clip-path="url(#clipPath15)"
       id="line6152"
       y2="161"
       style="fill:none;stroke-dasharray:none"
       y1="161"
       x2="178"
       x1="192" />
  </g>
  <g
     id="g6154"
     style="font-size:11px;stroke-linecap:butt;stroke-linejoin:round;stroke-dasharray:4;font-family:sans-serif"
     transform="translate(110,72)">
    <line
       clip-path="url(#clipPath16)"
       id="line6156"
       y2="110"
       style="fill:none"
       y1="50"
       x2="50"
       x1="50" />
    <line
       clip-path="url(#clipPath16)"
       id="line6158"
       y2="274"
       style="fill:none"
       y1="110"
       x2="214"
       x1="50" />
    <line
       clip-path="url(#clipPath16)"
       id="line6160"
       y2="261"
       style="fill:none;stroke-dasharray:none"
       y1="274"
       x2="210"
       x1="214" />
    <line
       clip-path="url(#clipPath16)"
       id="line6162"
       y2="270"
       style="fill:none;stroke-dasharray:none"
       y1="274"
       x2="201"
       x1="214" />
  </g>
  <g
     id="g6164"
     style="font-size:11px;stroke-linecap:butt;stroke-linejoin:round;font-family:sans-serif"
     transform="translate(59,26)">
    <line
       clip-path="url(#clipPath17)"
       id="line6166"
       y2="50"
       style="fill:none"
       y1="65"
       x2="50"
       x1="70" />
  </g>
  <g
     id="g6168"
     transform="translate(144,264)"
     style="font-size:11px;font-family:sans-serif">
    <text
       clip-path="url(#clipPath18)"
       id="text6170"
       xml:space="preserve"
       style="stroke:none"
       y="11"
       x="9">&lt;&lt;Include&gt;&gt;</text>
  </g>
  <g
     id="g6172"
     transform="translate(214,214)"
     style="font-size:11px;font-family:sans-serif">
    <text
       clip-path="url(#clipPath18)"
       id="text6174"
       xml:space="preserve"
       style="stroke:none"
       y="11"
       x="9">&lt;&lt;Include&gt;&gt;</text>
  </g>
  <g
     id="g6176"
     transform="translate(210,122)"
     style="font-size:11px;font-family:sans-serif">
    <text
       clip-path="url(#clipPath18)"
       id="text6178"
       xml:space="preserve"
       style="stroke:none"
       y="11"
       x="9">&lt;&lt;Include&gt;&gt;</text>
  </g>
  <g
     id="g6180"
     transform="translate(162,25)"
     style="font-size:11px;font-family:sans-serif">
    <text
       clip-path="url(#clipPath18)"
       id="text6182"
       xml:space="preserve"
       style="stroke:none"
       y="11"
       x="9">&lt;&lt;Include&gt;&gt;</text>
  </g>
</svg>
