<?xml version="1.0" encoding="UTF-8" standalone="no"?>
<svg
   xmlns:dc="http://purl.org/dc/elements/1.1/"
   xmlns:cc="http://creativecommons.org/ns#"
   xmlns:rdf="http://www.w3.org/1999/02/22-rdf-syntax-ns#"
   xmlns:svg="http://www.w3.org/2000/svg"
   xmlns="http://www.w3.org/2000/svg"
   xmlns:sodipodi="http://sodipodi.sourceforge.net/DTD/sodipodi-0.dtd"
   xmlns:inkscape="http://www.inkscape.org/namespaces/inkscape"
   style="fill-opacity:1; color-rendering:auto; color-interpolation:auto; stroke:black; text-rendering:auto; stroke-linecap:square; stroke-miterlimit:10; stroke-opacity:1; shape-rendering:auto; fill:black; stroke-dasharray:none; font-weight:normal; stroke-width:1; font-family:'Dialog'; font-style:normal; stroke-linejoin:miter; font-size:12; stroke-dashoffset:0; image-rendering:auto;"
   width="984"
   height="426"
   id="svg3549"
   version="1.1"
   inkscape:version="0.48.0 r9654"
   sodipodi:docname="get_seq.svg">
  <metadata
     id="metadata4057">
    <rdf:RDF>
      <cc:Work
         rdf:about="">
        <dc:format>image/svg+xml</dc:format>
        <dc:type
           rdf:resource="http://purl.org/dc/dcmitype/StillImage" />
      </cc:Work>
    </rdf:RDF>
  </metadata>
  <sodipodi:namedview
     pagecolor="#ffffff"
     bordercolor="#666666"
     borderopacity="1"
     objecttolerance="10"
     gridtolerance="10"
     guidetolerance="10"
     inkscape:pageopacity="0"
     inkscape:pageshadow="2"
     inkscape:window-width="1440"
     inkscape:window-height="849"
     id="namedview4055"
     showgrid="false"
     inkscape:zoom="0.52439024"
     inkscape:cx="492"
     inkscape:cy="222.09324"
     inkscape:window-x="-2"
     inkscape:window-y="26"
     inkscape:window-maximized="1"
     inkscape:current-layer="svg3549" />
  <!--Generated by the Batik Graphics2D SVG Generator-->
  <defs
     id="genericDefs">
    <defs
       id="defs1">
      <clipPath
         id="clipPath1"
         clipPathUnits="userSpaceOnUse">
        <path
           id="path3556"
           d="M-3 -3 L87 -3 L87 427 L-3 427 L-3 -3 Z" />
      </clipPath>
      <clipPath
         id="clipPath2"
         clipPathUnits="userSpaceOnUse">
        <path
           id="path3559"
           d="M-3 -3 L107 -3 L107 427 L-3 427 L-3 -3 Z" />
      </clipPath>
      <clipPath
         id="clipPath3"
         clipPathUnits="userSpaceOnUse">
        <path
           id="path3562"
           d="M-3 -3 L67 -3 L67 427 L-3 427 L-3 -3 Z" />
      </clipPath>
      <clipPath
         id="clipPath4"
         clipPathUnits="userSpaceOnUse">
        <path
           id="path3565"
           d="M-3 -3 L15 -3 L15 295 L-3 295 L-3 -3 Z" />
      </clipPath>
      <clipPath
         id="clipPath5"
         clipPathUnits="userSpaceOnUse">
        <path
           id="path3568"
           d="M-3 -3 L15 -3 L15 299 L-3 299 L-3 -3 Z" />
      </clipPath>
      <clipPath
         id="clipPath6"
         clipPathUnits="userSpaceOnUse">
        <path
           id="path3571"
           d="M-3 -3 L15 -3 L15 279 L-3 279 L-3 -3 Z" />
      </clipPath>
      <clipPath
         id="clipPath7"
         clipPathUnits="userSpaceOnUse">
        <path
           id="path3574"
           d="M-3 -3 L15 -3 L15 207 L-3 207 L-3 -3 Z" />
      </clipPath>
      <clipPath
         id="clipPath8"
         clipPathUnits="userSpaceOnUse">
        <path
           id="path3577"
           d="M-3 -3 L15 -3 L15 129 L-3 129 L-3 -3 Z" />
      </clipPath>
      <clipPath
         id="clipPath9"
         clipPathUnits="userSpaceOnUse">
        <path
           id="path3580"
           d="M-60 -28 L120 -28 L120 56 L-60 56 L-60 -28 Z" />
      </clipPath>
      <clipPath
         id="clipPath10"
         clipPathUnits="userSpaceOnUse">
        <path
           id="path3583"
           d="M-60 -14 L120 -14 L120 28 L-60 28 L-60 -14 Z" />
      </clipPath>
      <clipPath
         id="clipPath11"
         clipPathUnits="userSpaceOnUse">
        <path
           id="path3586"
           d="M-48 -13 L96 -13 L96 26 L-48 26 L-48 -13 Z" />
      </clipPath>
      <clipPath
         id="clipPath12"
         clipPathUnits="userSpaceOnUse">
        <path
           id="path3589"
           d="M-100 -14 L200 -14 L200 28 L-100 28 L-100 -14 Z" />
      </clipPath>
      <clipPath
         id="clipPath13"
         clipPathUnits="userSpaceOnUse">
        <path
           id="path3592"
           d="M-80 -14 L160 -14 L160 28 L-80 28 L-80 -14 Z" />
      </clipPath>
      <clipPath
         id="clipPath14"
         clipPathUnits="userSpaceOnUse">
        <path
           id="path3595"
           d="M0 0 L266 0 L266 104 L0 104 L0 0 Z" />
      </clipPath>
      <clipPath
         id="clipPath15"
         clipPathUnits="userSpaceOnUse">
        <path
           id="path3598"
           d="M0 0 L256 0 L256 104 L0 104 L0 0 Z" />
      </clipPath>
      <clipPath
         id="clipPath16"
         clipPathUnits="userSpaceOnUse">
        <path
           id="path3601"
           d="M0 0 L556 0 L556 104 L0 104 L0 0 Z" />
      </clipPath>
      <clipPath
         id="clipPath17"
         clipPathUnits="userSpaceOnUse">
        <path
           id="path3604"
           d="M0 0 L286 0 L286 104 L0 104 L0 0 Z" />
      </clipPath>
      <clipPath
         id="clipPath18"
         clipPathUnits="userSpaceOnUse">
        <path
           id="path3607"
           d="M0 0 L366 0 L366 104 L0 104 L0 0 Z" />
      </clipPath>
      <clipPath
         id="clipPath19"
         clipPathUnits="userSpaceOnUse">
        <path
           id="path3610"
           d="M0 0 L496 0 L496 104 L0 104 L0 0 Z" />
      </clipPath>
      <clipPath
         id="clipPath20"
         clipPathUnits="userSpaceOnUse">
        <path
           id="path3613"
           d="M0 0 L446 0 L446 104 L0 104 L0 0 Z" />
      </clipPath>
      <clipPath
         id="clipPath21"
         clipPathUnits="userSpaceOnUse">
        <path
           id="path3616"
           d="M-172 -13 L344 -13 L344 26 L-172 26 L-172 -13 Z" />
      </clipPath>
      <clipPath
         id="clipPath22"
         clipPathUnits="userSpaceOnUse">
        <path
           id="path3619"
           d="M-168 -13 L336 -13 L336 26 L-168 26 L-168 -13 Z" />
      </clipPath>
      <clipPath
         id="clipPath23"
         clipPathUnits="userSpaceOnUse">
        <path
           id="path3622"
           d="M-171 -13 L342 -13 L342 26 L-171 26 L-171 -13 Z" />
      </clipPath>
      <clipPath
         id="clipPath24"
         clipPathUnits="userSpaceOnUse">
        <path
           id="path3625"
           d="M-187 -13 L374 -13 L374 26 L-187 26 L-187 -13 Z" />
      </clipPath>
      <clipPath
         id="clipPath25"
         clipPathUnits="userSpaceOnUse">
        <path
           id="path3628"
           d="M-231 -13 L462 -13 L462 26 L-231 26 L-231 -13 Z" />
      </clipPath>
      <clipPath
         id="clipPath26"
         clipPathUnits="userSpaceOnUse">
        <path
           id="path3631"
           d="M-210 -13 L420 -13 L420 26 L-210 26 L-210 -13 Z" />
      </clipPath>
      <clipPath
         id="clipPath27"
         clipPathUnits="userSpaceOnUse">
        <path
           id="path3634"
           d="M-140 -13 L280 -13 L280 26 L-140 26 L-140 -13 Z" />
      </clipPath>
      <clipPath
         id="clipPath28"
         clipPathUnits="userSpaceOnUse">
        <path
           id="path3637"
           d="M-256 -13 L512 -13 L512 26 L-256 26 L-256 -13 Z" />
      </clipPath>
      <clipPath
         id="clipPath29"
         clipPathUnits="userSpaceOnUse">
        <path
           id="path3640"
           d="M-148 -13 L296 -13 L296 26 L-148 26 L-148 -13 Z" />
      </clipPath>
      <clipPath
         id="clipPath30"
         clipPathUnits="userSpaceOnUse">
        <path
           id="path3643"
           d="M-110 -13 L220 -13 L220 26 L-110 26 L-110 -13 Z" />
      </clipPath>
    </defs>
  </defs>
  <g
     id="g3645"
     style="fill:#ffffff;stroke:#ffffff"
     transform="translate(-32.418605,-13.348837)">
    <rect
       id="rect3647"
       height="426"
       style="stroke:none"
       width="984"
       y="0"
       x="0" />
  </g>
  <g
     id="g3649"
     style="font-size:11px;fill:#7acff5;stroke:#7acff5;font-family:sans-serif"
     transform="translate(127.5814,-11.348837)">
    <rect
       clip-path="url(#clipPath1)"
       id="rect3651"
       height="35"
       style="stroke:none"
       width="79"
       y="0"
       x="0" />
  </g>
  <g
     id="g3653"
     style="font-size:11px;stroke-linecap:butt;stroke-linejoin:round;stroke-miterlimit:0;font-family:sans-serif"
     transform="translate(127.5814,-11.348837)">
    <rect
       clip-path="url(#clipPath1)"
       id="rect3655"
       height="35"
       style="fill:none"
       width="79"
       y="0"
       x="0" />
    <line
       clip-path="url(#clipPath1)"
       id="line3657"
       y2="420"
       style="fill:none;stroke-linejoin:bevel;stroke-dasharray:8, 3"
       y1="35"
       x2="39"
       x1="39" />
  </g>
  <g
     id="g3659"
     style="font-size:11px;fill:#7acff5;stroke:#7acff5;font-family:sans-serif"
     transform="translate(277.5814,-11.348837)">
    <rect
       clip-path="url(#clipPath2)"
       id="rect3661"
       height="35"
       style="stroke:none"
       width="99"
       y="0"
       x="0" />
  </g>
  <g
     id="g3663"
     style="font-size:11px;stroke-linecap:butt;stroke-linejoin:round;stroke-miterlimit:0;font-family:sans-serif"
     transform="translate(277.5814,-11.348837)">
    <rect
       clip-path="url(#clipPath2)"
       id="rect3665"
       height="35"
       style="fill:none"
       width="99"
       y="0"
       x="0" />
    <line
       clip-path="url(#clipPath2)"
       id="line3667"
       y2="420"
       style="fill:none;stroke-linejoin:bevel;stroke-dasharray:8, 3"
       y1="35"
       x2="49"
       x1="49" />
  </g>
  <g
     id="g3669"
     style="font-size:11px;fill:#7acff5;stroke:#7acff5;font-family:sans-serif"
     transform="translate(487.5814,-11.348837)">
    <rect
       clip-path="url(#clipPath3)"
       id="rect3671"
       height="35"
       style="stroke:none"
       width="59"
       y="0"
       x="0" />
  </g>
  <g
     id="g3673"
     style="font-size:11px;stroke-linecap:butt;stroke-linejoin:round;stroke-miterlimit:0;font-family:sans-serif"
     transform="translate(487.5814,-11.348837)">
    <rect
       clip-path="url(#clipPath3)"
       id="rect3675"
       height="35"
       style="fill:none"
       width="59"
       y="0"
       x="0" />
    <line
       clip-path="url(#clipPath3)"
       id="line3677"
       y2="420"
       style="fill:none;stroke-linejoin:bevel;stroke-dasharray:8, 3"
       y1="35"
       x2="29"
       x1="29" />
  </g>
  <g
     id="g3679"
     style="font-size:11px;fill:#7acff5;stroke:#7acff5;font-family:sans-serif"
     transform="translate(-32.418605,-11.348837)">
    <circle
       sodipodi:ry="5"
       sodipodi:rx="5"
       sodipodi:cy="5"
       sodipodi:cx="30"
       d="m 35,5 c 0,2.7614237 -2.238576,5 -5,5 -2.761424,0 -5,-2.2385763 -5,-5 0,-2.7614237 2.238576,-5 5,-5 2.761424,0 5,2.2385763 5,5 z"
       clip-path="url(#clipPath3)"
       id="circle3681"
       cy="5"
       cx="30"
       r="5"
       style="stroke:none" />
    <rect
       clip-path="url(#clipPath3)"
       id="rect3683"
       height="371"
       style="stroke:none"
       width="8"
       y="48"
       x="26" />
  </g>
  <g
     id="g3685"
     style="font-size:11px;stroke-linecap:butt;stroke-linejoin:round;stroke-miterlimit:0;font-family:sans-serif"
     transform="translate(-32.418605,-11.348837)">
    <circle
       sodipodi:ry="5"
       sodipodi:rx="5"
       sodipodi:cy="5"
       sodipodi:cx="30"
       d="m 35,5 c 0,2.7614237 -2.238576,5 -5,5 -2.761424,0 -5,-2.2385763 -5,-5 0,-2.7614237 2.238576,-5 5,-5 2.761424,0 5,2.2385763 5,5 z"
       clip-path="url(#clipPath3)"
       id="circle3687"
       cy="5"
       cx="30"
       r="5"
       style="fill:none" />
    <rect
       clip-path="url(#clipPath3)"
       id="rect3689"
       height="371"
       style="fill:none"
       width="8"
       y="48"
       x="26" />
    <line
       clip-path="url(#clipPath3)"
       id="line3691"
       y2="25"
       style="fill:none"
       y1="10"
       x2="30"
       x1="30" />
    <line
       clip-path="url(#clipPath3)"
       id="line3693"
       y2="36"
       style="fill:none"
       y1="25"
       x2="21"
       x1="30" />
    <line
       clip-path="url(#clipPath3)"
       id="line3695"
       y2="36"
       style="fill:none"
       y1="25"
       x2="39"
       x1="30" />
    <line
       clip-path="url(#clipPath3)"
       id="line3697"
       y2="16"
       style="fill:none"
       y1="16"
       x2="39"
       x1="21" />
  </g>
  <g
     id="g3699"
     style="font-size:11px;fill:#7acff5;stroke:#7acff5;font-family:sans-serif"
     transform="translate(757.5814,-11.348837)">
    <rect
       clip-path="url(#clipPath3)"
       id="rect3701"
       height="35"
       style="stroke:none"
       width="59"
       y="0"
       x="0" />
  </g>
  <g
     id="g3703"
     style="font-size:11px;stroke-linecap:butt;stroke-linejoin:round;stroke-miterlimit:0;font-family:sans-serif"
     transform="translate(757.5814,-11.348837)">
    <rect
       clip-path="url(#clipPath3)"
       id="rect3705"
       height="35"
       style="fill:none"
       width="59"
       y="0"
       x="0" />
    <line
       clip-path="url(#clipPath3)"
       id="line3707"
       y2="420"
       style="fill:none;stroke-linejoin:bevel;stroke-dasharray:8, 3"
       y1="35"
       x2="29"
       x1="29" />
  </g>
  <g
     id="g3709"
     style="font-size:11px;fill:#7acff5;stroke:#7acff5;font-family:sans-serif"
     transform="translate(887.5814,-11.348837)">
    <rect
       clip-path="url(#clipPath3)"
       id="rect3711"
       height="35"
       style="stroke:none"
       width="59"
       y="0"
       x="0" />
  </g>
  <g
     id="g3713"
     style="font-size:11px;stroke-linecap:butt;stroke-linejoin:round;stroke-miterlimit:0;font-family:sans-serif"
     transform="translate(887.5814,-11.348837)">
    <rect
       clip-path="url(#clipPath3)"
       id="rect3715"
       height="35"
       style="fill:none"
       width="59"
       y="0"
       x="0" />
    <line
       clip-path="url(#clipPath3)"
       id="line3717"
       y2="420"
       style="fill:none;stroke-linejoin:bevel;stroke-dasharray:8, 3"
       y1="35"
       x2="29"
       x1="29" />
  </g>
  <g
     id="g3719"
     style="font-size:11px;fill:#7acff5;stroke:#7acff5;font-family:sans-serif"
     transform="translate(163.5814,68.651163)">
    <rect
       clip-path="url(#clipPath4)"
       id="rect3721"
       height="288"
       style="stroke:none"
       width="8"
       y="0"
       x="0" />
  </g>
  <g
     id="g3723"
     style="font-size:11px;stroke-linecap:butt;stroke-linejoin:round;stroke-miterlimit:0;font-family:sans-serif"
     transform="translate(163.5814,68.651163)">
    <rect
       clip-path="url(#clipPath4)"
       id="rect3725"
       height="288"
       style="fill:none"
       width="8"
       y="0"
       x="0" />
  </g>
  <g
     id="g3727"
     style="font-size:11px;fill:#7acff5;stroke:#7acff5;font-family:sans-serif"
     transform="translate(323.5814,88.651163)">
    <rect
       clip-path="url(#clipPath5)"
       id="rect3729"
       height="292"
       style="stroke:none"
       width="8"
       y="0"
       x="0" />
  </g>
  <g
     id="g3731"
     style="font-size:11px;stroke-linecap:butt;stroke-linejoin:round;stroke-miterlimit:0;font-family:sans-serif"
     transform="translate(323.5814,88.651163)">
    <rect
       clip-path="url(#clipPath5)"
       id="rect3733"
       height="292"
       style="fill:none"
       width="8"
       y="0"
       x="0" />
  </g>
  <g
     id="g3735"
     style="font-size:11px;fill:#7acff5;stroke:#7acff5;font-family:sans-serif"
     transform="translate(783.5814,108.65116)">
    <rect
       clip-path="url(#clipPath6)"
       id="rect3737"
       height="272"
       style="stroke:none"
       width="8"
       y="0"
       x="0" />
  </g>
  <g
     id="g3739"
     style="font-size:11px;stroke-linecap:butt;stroke-linejoin:round;stroke-miterlimit:0;font-family:sans-serif"
     transform="translate(783.5814,108.65116)">
    <rect
       clip-path="url(#clipPath6)"
       id="rect3741"
       height="272"
       style="fill:none"
       width="8"
       y="0"
       x="0" />
  </g>
  <g
     id="g3743"
     style="font-size:11px;fill:#7acff5;stroke:#7acff5;font-family:sans-serif"
     transform="translate(513.5814,168.65116)">
    <rect
       clip-path="url(#clipPath7)"
       id="rect3745"
       height="200"
       style="stroke:none"
       width="8"
       y="0"
       x="0" />
  </g>
  <g
     id="g3747"
     style="font-size:11px;stroke-linecap:butt;stroke-linejoin:round;stroke-miterlimit:0;font-family:sans-serif"
     transform="translate(513.5814,168.65116)">
    <rect
       clip-path="url(#clipPath7)"
       id="rect3749"
       height="200"
       style="fill:none"
       width="8"
       y="0"
       x="0" />
  </g>
  <g
     id="g3751"
     style="font-size:11px;fill:#7acff5;stroke:#7acff5;font-family:sans-serif"
     transform="translate(913.5814,258.65116)">
    <rect
       clip-path="url(#clipPath8)"
       id="rect3753"
       height="122"
       style="stroke:none"
       width="8"
       y="0"
       x="0" />
  </g>
  <g
     id="g3755"
     style="font-size:11px;stroke-linecap:butt;stroke-linejoin:round;stroke-miterlimit:0;font-family:sans-serif"
     transform="translate(913.5814,258.65116)">
    <rect
       clip-path="url(#clipPath8)"
       id="rect3757"
       height="122"
       style="fill:none"
       width="8"
       y="0"
       x="0" />
  </g>
  <g
     id="g3759"
     transform="translate(887.5814,-11.348837)"
     style="font-size:11px;font-family:sans-serif">
    <text
       clip-path="url(#clipPath9)"
       id="text3761"
       xml:space="preserve"
       style="stroke:none"
       y="11"
       x="20">File</text>
    <text
       clip-path="url(#clipPath9)"
       id="text3763"
       xml:space="preserve"
       style="stroke:none"
       y="25"
       x="9">storage</text>
  </g>
  <g
     id="g3765"
     transform="translate(757.5814,-11.348837)"
     style="font-size:11px;font-family:sans-serif">
    <text
       clip-path="url(#clipPath10)"
       id="text3767"
       xml:space="preserve"
       style="stroke:none"
       y="11"
       x="4">Database</text>
  </g>
  <g
     id="g3769"
     transform="translate(-26.418605,23.651163)"
     style="font-size:11px;font-family:sans-serif">
    <text
       clip-path="url(#clipPath11)"
       id="text3771"
       xml:space="preserve"
       style="stroke:none"
       y="11"
       x="8">Actor</text>
  </g>
  <g
     id="g3773"
     transform="translate(487.5814,-11.348837)"
     style="font-size:11px;font-family:sans-serif">
    <text
       clip-path="url(#clipPath9)"
       id="text3775"
       xml:space="preserve"
       style="stroke:none"
       y="11"
       x="5">DBFSHan</text>
    <text
       clip-path="url(#clipPath9)"
       id="text3777"
       xml:space="preserve"
       style="stroke:none"
       y="25"
       x="21">fler</text>
  </g>
  <g
     id="g3779"
     transform="translate(277.5814,-11.348837)"
     style="font-size:11px;font-family:sans-serif">
    <text
       clip-path="url(#clipPath12)"
       id="text3781"
       xml:space="preserve"
       style="stroke:none"
       y="11"
       x="9">DBAuthHandler</text>
  </g>
  <g
     id="g3783"
     transform="translate(127.5814,-11.348837)"
     style="font-size:11px;font-family:sans-serif">
    <text
       clip-path="url(#clipPath13)"
       id="text3785"
       xml:space="preserve"
       style="stroke:none"
       y="11"
       x="7">HTTP server</text>
  </g>
  <g
     id="g3787"
     style="font-size:11px;stroke-linecap:butt;stroke-linejoin:round;font-family:sans-serif"
     transform="translate(-48.418605,18.651163)">
    <line
       clip-path="url(#clipPath14)"
       id="line3789"
       y2="50"
       style="fill:none"
       y1="50"
       x2="212"
       x1="50" />
    <polygon
       clip-path="url(#clipPath14)"
       id="polygon3791"
       points="212,50 200,44 200,56 "
       style="stroke:none" />
    <polygon
       clip-path="url(#clipPath14)"
       id="polygon3793"
       points="212,50 200,44 200,56 "
       style="fill:none" />
  </g>
  <g
     id="g3795"
     style="font-size:11px;stroke-linecap:butt;stroke-linejoin:round;font-family:sans-serif"
     transform="translate(121.5814,38.651163)">
    <line
       clip-path="url(#clipPath15)"
       id="line3797"
       y2="50"
       style="fill:none"
       y1="50"
       x2="202"
       x1="50" />
    <polygon
       clip-path="url(#clipPath15)"
       id="polygon3799"
       points="202,50 190,44 190,56 "
       style="stroke:none" />
    <polygon
       clip-path="url(#clipPath15)"
       id="polygon3801"
       points="202,50 190,44 190,56 "
       style="fill:none" />
  </g>
  <g
     id="g3803"
     style="font-size:11px;stroke-linecap:butt;stroke-linejoin:round;font-family:sans-serif"
     transform="translate(281.5814,58.651163)">
    <line
       clip-path="url(#clipPath16)"
       id="line3805"
       y2="50"
       style="fill:none"
       y1="50"
       x2="502"
       x1="50" />
    <polygon
       clip-path="url(#clipPath16)"
       id="polygon3807"
       points="502,50 490,44 490,56 "
       style="stroke:none" />
    <polygon
       clip-path="url(#clipPath16)"
       id="polygon3809"
       points="502,50 490,44 490,56 "
       style="fill:none" />
  </g>
  <g
     id="g3811"
     style="font-size:11px;stroke-linecap:butt;stroke-linejoin:round;font-family:sans-serif"
     transform="translate(281.5814,88.651163)">
    <line
       clip-path="url(#clipPath16)"
       id="line3813"
       y2="50"
       style="fill:none"
       y1="50"
       x2="50"
       x1="502" />
    <polygon
       clip-path="url(#clipPath16)"
       id="polygon3815"
       points="50,50 62,56 62,44 "
       style="stroke:none" />
    <polygon
       clip-path="url(#clipPath16)"
       id="polygon3817"
       points="50,50 62,56 62,44 "
       style="fill:none" />
  </g>
  <g
     id="g3819"
     style="font-size:11px;stroke-linecap:butt;stroke-linejoin:round;font-family:sans-serif"
     transform="translate(281.5814,118.65116)">
    <line
       clip-path="url(#clipPath17)"
       id="line3821"
       y2="50"
       style="fill:none"
       y1="50"
       x2="232"
       x1="50" />
    <polygon
       clip-path="url(#clipPath17)"
       id="polygon3823"
       points="232,50 220,44 220,56 "
       style="stroke:none" />
    <polygon
       clip-path="url(#clipPath17)"
       id="polygon3825"
       points="232,50 220,44 220,56 "
       style="fill:none" />
  </g>
  <g
     id="g3827"
     style="font-size:11px;stroke-linecap:butt;stroke-linejoin:round;font-family:sans-serif"
     transform="translate(471.5814,148.65116)">
    <line
       clip-path="url(#clipPath18)"
       id="line3829"
       y2="50"
       style="fill:none"
       y1="50"
       x2="312"
       x1="50" />
    <polygon
       clip-path="url(#clipPath18)"
       id="polygon3831"
       points="312,50 300,44 300,56 "
       style="stroke:none" />
    <polygon
       clip-path="url(#clipPath18)"
       id="polygon3833"
       points="312,50 300,44 300,56 "
       style="fill:none" />
  </g>
  <g
     id="g3835"
     style="font-size:11px;stroke-linecap:butt;stroke-linejoin:round;font-family:sans-serif"
     transform="translate(471.5814,178.65116)">
    <line
       clip-path="url(#clipPath18)"
       id="line3837"
       y2="50"
       style="fill:none"
       y1="50"
       x2="50"
       x1="312" />
    <polygon
       clip-path="url(#clipPath18)"
       id="polygon3839"
       points="50,50 62,56 62,44 "
       style="stroke:none" />
    <polygon
       clip-path="url(#clipPath18)"
       id="polygon3841"
       points="50,50 62,56 62,44 "
       style="fill:none" />
  </g>
  <g
     id="g3843"
     style="font-size:11px;stroke-linecap:butt;stroke-linejoin:round;font-family:sans-serif"
     transform="translate(471.5814,208.65116)">
    <line
       clip-path="url(#clipPath19)"
       id="line3845"
       y2="50"
       style="fill:none"
       y1="50"
       x2="442"
       x1="50" />
    <polygon
       clip-path="url(#clipPath19)"
       id="polygon3847"
       points="442,50 430,44 430,56 "
       style="stroke:none" />
    <polygon
       clip-path="url(#clipPath19)"
       id="polygon3849"
       points="442,50 430,44 430,56 "
       style="fill:none" />
  </g>
  <g
     id="g3851"
     style="font-size:11px;stroke-linecap:butt;stroke-linejoin:round;font-family:sans-serif"
     transform="translate(471.5814,238.65116)">
    <line
       clip-path="url(#clipPath19)"
       id="line3853"
       y2="50"
       style="fill:none"
       y1="50"
       x2="50"
       x1="442" />
    <polygon
       clip-path="url(#clipPath19)"
       id="polygon3855"
       points="50,50 62,56 62,44 "
       style="stroke:none" />
    <polygon
       clip-path="url(#clipPath19)"
       id="polygon3857"
       points="50,50 62,56 62,44 "
       style="fill:none" />
  </g>
  <g
     id="g3859"
     style="font-size:11px;stroke-linecap:butt;stroke-linejoin:round;font-family:sans-serif"
     transform="translate(121.5814,258.65116)">
    <line
       clip-path="url(#clipPath20)"
       id="line3861"
       y2="50"
       style="fill:none"
       y1="50"
       x2="50"
       x1="392" />
    <polygon
       clip-path="url(#clipPath20)"
       id="polygon3863"
       points="50,50 62,56 62,44 "
       style="stroke:none" />
    <polygon
       clip-path="url(#clipPath20)"
       id="polygon3865"
       points="50,50 62,56 62,44 "
       style="fill:none" />
  </g>
  <g
     id="g3867"
     style="font-size:11px;stroke-linecap:butt;stroke-linejoin:round;font-family:sans-serif"
     transform="translate(-48.418605,288.65116)">
    <line
       clip-path="url(#clipPath14)"
       id="line3869"
       y2="50"
       style="fill:none"
       y1="50"
       x2="50"
       x1="212" />
    <polygon
       clip-path="url(#clipPath14)"
       id="polygon3871"
       points="50,50 62,56 62,44 "
       style="stroke:none" />
    <polygon
       clip-path="url(#clipPath14)"
       id="polygon3873"
       points="50,50 62,56 62,44 "
       style="fill:none" />
  </g>
  <g
     id="g3875"
     transform="translate(-4.4186047,318.65116)"
     style="font-size:11px;font-family:sans-serif">
    <text
       clip-path="url(#clipPath21)"
       id="text3877"
       xml:space="preserve"
       style="stroke:none"
       y="11"
       x="11">11: Передача содержимого</text>
  </g>
  <g
     id="g3879"
     transform="translate(327.5814,288.65116)"
     style="font-size:11px;font-family:sans-serif">
    <text
       clip-path="url(#clipPath22)"
       id="text3881"
       xml:space="preserve"
       style="stroke:none"
       y="11"
       x="10">10: Подготовка к отправке</text>
  </g>
  <g
     id="g3883"
     transform="translate(565.5814,268.65116)"
     style="font-size:11px;font-family:sans-serif">
    <text
       clip-path="url(#clipPath23)"
       id="text3885"
       xml:space="preserve"
       style="stroke:none"
       y="11"
       x="10">9: Получение содержимого</text>
  </g>
  <g
     id="g3887"
     transform="translate(557.5814,238.65116)"
     style="font-size:11px;font-family:sans-serif">
    <text
       clip-path="url(#clipPath24)"
       id="text3889"
       xml:space="preserve"
       style="stroke:none"
       y="11"
       x="10">8: Чтение содержимого файла</text>
  </g>
  <g
     id="g3891"
     transform="translate(535.5814,208.65116)"
     style="font-size:11px;font-family:sans-serif">
    <text
       clip-path="url(#clipPath25)"
       id="text3893"
       xml:space="preserve"
       style="stroke:none"
       y="11"
       x="11">7: Получение текущей версии объекта</text>
  </g>
  <g
     id="g3895"
     transform="translate(547.5814,178.65116)"
     style="font-size:11px;font-family:sans-serif">
    <text
       clip-path="url(#clipPath26)"
       id="text3897"
       xml:space="preserve"
       style="stroke:none"
       y="11"
       x="10">6: Запрос информации об объекте</text>
  </g>
  <g
     id="g3899"
     transform="translate(352.5814,148.65116)"
     style="font-size:11px;font-family:sans-serif">
    <text
       clip-path="url(#clipPath27)"
       id="text3901"
       xml:space="preserve"
       style="stroke:none"
       y="11"
       x="10">5: Обработка запроса</text>
  </g>
  <g
     id="g3903"
     transform="translate(428.5814,118.65116)"
     style="font-size:11px;font-family:sans-serif">
    <text
       clip-path="url(#clipPath28)"
       id="text3905"
       xml:space="preserve"
       style="stroke:none"
       y="11"
       x="11">4: Получение прав пользователя на объект</text>
  </g>
  <g
     id="g3907"
     transform="translate(447.5814,88.651163)"
     style="font-size:11px;font-family:sans-serif">
    <text
       clip-path="url(#clipPath29)"
       id="text3909"
       xml:space="preserve"
       style="stroke:none"
       y="11"
       x="9">3: Запрос прав доступа</text>
  </g>
  <g
     id="g3911"
     transform="translate(177.5814,68.651163)"
     style="font-size:11px;font-family:sans-serif">
    <text
       clip-path="url(#clipPath27)"
       id="text3913"
       xml:space="preserve"
       style="stroke:none"
       y="11"
       x="10">2: Обработка запроса</text>
  </g>
  <g
     id="g3915"
     transform="translate(27.581395,48.651163)"
     style="font-size:11px;font-family:sans-serif">
    <text
       clip-path="url(#clipPath30)"
       id="text3917"
       xml:space="preserve"
       style="stroke:none"
       y="11"
       x="10">1: Запрос файла</text>
  </g>
</svg>
