<?xml version="1.0" encoding="UTF-8" standalone="no"?>
<svg
   xmlns:dc="http://purl.org/dc/elements/1.1/"
   xmlns:cc="http://creativecommons.org/ns#"
   xmlns:rdf="http://www.w3.org/1999/02/22-rdf-syntax-ns#"
   xmlns:svg="http://www.w3.org/2000/svg"
   xmlns="http://www.w3.org/2000/svg"
   xmlns:sodipodi="http://sodipodi.sourceforge.net/DTD/sodipodi-0.dtd"
   xmlns:inkscape="http://www.inkscape.org/namespaces/inkscape"
   style="fill-opacity:1; color-rendering:auto; color-interpolation:auto; stroke:black; text-rendering:auto; stroke-linecap:square; stroke-miterlimit:10; stroke-opacity:1; shape-rendering:auto; fill:black; stroke-dasharray:none; font-weight:normal; stroke-width:1; font-family:'Dialog'; font-style:normal; stroke-linejoin:miter; font-size:12; stroke-dashoffset:0; image-rendering:auto;"
   width="984"
   height="546"
   id="svg3587"
   version="1.1"
   inkscape:version="0.48.0 r9654"
   sodipodi:docname="put_seq.svg">
  <metadata
     id="metadata4168">
    <rdf:RDF>
      <cc:Work
         rdf:about="">
        <dc:format>image/svg+xml</dc:format>
        <dc:type
           rdf:resource="http://purl.org/dc/dcmitype/StillImage" />
      </cc:Work>
    </rdf:RDF>
  </metadata>
  <sodipodi:namedview
     pagecolor="#ffffff"
     bordercolor="#666666"
     borderopacity="1"
     objecttolerance="10"
     gridtolerance="10"
     guidetolerance="10"
     inkscape:pageopacity="0"
     inkscape:pageshadow="2"
     inkscape:window-width="1440"
     inkscape:window-height="849"
     id="namedview4166"
     showgrid="false"
     inkscape:zoom="0.68120543"
     inkscape:cx="436.04205"
     inkscape:cy="133.86839"
     inkscape:window-x="0"
     inkscape:window-y="26"
     inkscape:window-maximized="1"
     inkscape:current-layer="svg3587" />
  <!--Generated by the Batik Graphics2D SVG Generator-->
  <defs
     id="genericDefs">
    <defs
       id="defs1">
      <clipPath
         id="clipPath1"
         clipPathUnits="userSpaceOnUse">
        <path
           id="path3594"
           d="M-3 -3 L87 -3 L87 547 L-3 547 L-3 -3 Z" />
      </clipPath>
      <clipPath
         id="clipPath2"
         clipPathUnits="userSpaceOnUse">
        <path
           id="path3597"
           d="M-3 -3 L107 -3 L107 547 L-3 547 L-3 -3 Z" />
      </clipPath>
      <clipPath
         id="clipPath3"
         clipPathUnits="userSpaceOnUse">
        <path
           id="path3600"
           d="M-3 -3 L67 -3 L67 547 L-3 547 L-3 -3 Z" />
      </clipPath>
      <clipPath
         id="clipPath4"
         clipPathUnits="userSpaceOnUse">
        <path
           id="path3603"
           d="M-3 -3 L15 -3 L15 423 L-3 423 L-3 -3 Z" />
      </clipPath>
      <clipPath
         id="clipPath5"
         clipPathUnits="userSpaceOnUse">
        <path
           id="path3606"
           d="M-3 -3 L15 -3 L15 427 L-3 427 L-3 -3 Z" />
      </clipPath>
      <clipPath
         id="clipPath6"
         clipPathUnits="userSpaceOnUse">
        <path
           id="path3609"
           d="M-3 -3 L15 -3 L15 407 L-3 407 L-3 -3 Z" />
      </clipPath>
      <clipPath
         id="clipPath7"
         clipPathUnits="userSpaceOnUse">
        <path
           id="path3612"
           d="M-3 -3 L15 -3 L15 335 L-3 335 L-3 -3 Z" />
      </clipPath>
      <clipPath
         id="clipPath8"
         clipPathUnits="userSpaceOnUse">
        <path
           id="path3615"
           d="M-3 -3 L15 -3 L15 157 L-3 157 L-3 -3 Z" />
      </clipPath>
      <clipPath
         id="clipPath9"
         clipPathUnits="userSpaceOnUse">
        <path
           id="path3618"
           d="M-60 -28 L120 -28 L120 56 L-60 56 L-60 -28 Z" />
      </clipPath>
      <clipPath
         id="clipPath10"
         clipPathUnits="userSpaceOnUse">
        <path
           id="path3621"
           d="M-60 -14 L120 -14 L120 28 L-60 28 L-60 -14 Z" />
      </clipPath>
      <clipPath
         id="clipPath11"
         clipPathUnits="userSpaceOnUse">
        <path
           id="path3624"
           d="M-50 -14 L100 -14 L100 28 L-50 28 L-50 -14 Z" />
      </clipPath>
      <clipPath
         id="clipPath12"
         clipPathUnits="userSpaceOnUse">
        <path
           id="path3627"
           d="M-80 -14 L160 -14 L160 28 L-80 28 L-80 -14 Z" />
      </clipPath>
      <clipPath
         id="clipPath13"
         clipPathUnits="userSpaceOnUse">
        <path
           id="path3630"
           d="M-100 -14 L200 -14 L200 28 L-100 28 L-100 -14 Z" />
      </clipPath>
      <clipPath
         id="clipPath14"
         clipPathUnits="userSpaceOnUse">
        <path
           id="path3633"
           d="M0 0 L266 0 L266 104 L0 104 L0 0 Z" />
      </clipPath>
      <clipPath
         id="clipPath15"
         clipPathUnits="userSpaceOnUse">
        <path
           id="path3636"
           d="M0 0 L256 0 L256 104 L0 104 L0 0 Z" />
      </clipPath>
      <clipPath
         id="clipPath16"
         clipPathUnits="userSpaceOnUse">
        <path
           id="path3639"
           d="M0 0 L286 0 L286 104 L0 104 L0 0 Z" />
      </clipPath>
      <clipPath
         id="clipPath17"
         clipPathUnits="userSpaceOnUse">
        <path
           id="path3642"
           d="M0 0 L446 0 L446 104 L0 104 L0 0 Z" />
      </clipPath>
      <clipPath
         id="clipPath18"
         clipPathUnits="userSpaceOnUse">
        <path
           id="path3645"
           d="M0 0 L606 0 L606 104 L0 104 L0 0 Z" />
      </clipPath>
      <clipPath
         id="clipPath19"
         clipPathUnits="userSpaceOnUse">
        <path
           id="path3648"
           d="M0 0 L416 0 L416 104 L0 104 L0 0 Z" />
      </clipPath>
      <clipPath
         id="clipPath20"
         clipPathUnits="userSpaceOnUse">
        <path
           id="path3651"
           d="M0 0 L496 0 L496 104 L0 104 L0 0 Z" />
      </clipPath>
      <clipPath
         id="clipPath21"
         clipPathUnits="userSpaceOnUse">
        <path
           id="path3654"
           d="M0 0 L130 0 L130 124 L0 124 L0 0 Z" />
      </clipPath>
      <clipPath
         id="clipPath22"
         clipPathUnits="userSpaceOnUse">
        <path
           id="path3657"
           d="M-268 -14 L536 -14 L536 28 L-268 28 L-268 -14 Z" />
      </clipPath>
      <clipPath
         id="clipPath23"
         clipPathUnits="userSpaceOnUse">
        <path
           id="path3660"
           d="M-186 -14 L372 -14 L372 28 L-186 28 L-186 -14 Z" />
      </clipPath>
      <clipPath
         id="clipPath24"
         clipPathUnits="userSpaceOnUse">
        <path
           id="path3663"
           d="M-303 -14 L606 -14 L606 28 L-303 28 L-303 -14 Z" />
      </clipPath>
      <clipPath
         id="clipPath25"
         clipPathUnits="userSpaceOnUse">
        <path
           id="path3666"
           d="M-170 -14 L340 -14 L340 28 L-170 28 L-170 -14 Z" />
      </clipPath>
      <clipPath
         id="clipPath26"
         clipPathUnits="userSpaceOnUse">
        <path
           id="path3669"
           d="M-193 -14 L386 -14 L386 28 L-193 28 L-193 -14 Z" />
      </clipPath>
      <clipPath
         id="clipPath27"
         clipPathUnits="userSpaceOnUse">
        <path
           id="path3672"
           d="M-231 -14 L462 -14 L462 28 L-231 28 L-231 -14 Z" />
      </clipPath>
      <clipPath
         id="clipPath28"
         clipPathUnits="userSpaceOnUse">
        <path
           id="path3675"
           d="M-256 -14 L512 -14 L512 28 L-256 28 L-256 -14 Z" />
      </clipPath>
      <clipPath
         id="clipPath29"
         clipPathUnits="userSpaceOnUse">
        <path
           id="path3678"
           d="M-210 -14 L420 -14 L420 28 L-210 28 L-210 -14 Z" />
      </clipPath>
      <clipPath
         id="clipPath30"
         clipPathUnits="userSpaceOnUse">
        <path
           id="path3681"
           d="M-149 -14 L298 -14 L298 28 L-149 28 L-149 -14 Z" />
      </clipPath>
      <clipPath
         id="clipPath31"
         clipPathUnits="userSpaceOnUse">
        <path
           id="path3684"
           d="M-173 -14 L346 -14 L346 28 L-173 28 L-173 -14 Z" />
      </clipPath>
      <clipPath
         id="clipPath32"
         clipPathUnits="userSpaceOnUse">
        <path
           id="path3687"
           d="M-140 -14 L280 -14 L280 28 L-140 28 L-140 -14 Z" />
      </clipPath>
      <clipPath
         id="clipPath33"
         clipPathUnits="userSpaceOnUse">
        <path
           id="path3690"
           d="M-131 -14 L262 -14 L262 28 L-131 28 L-131 -14 Z" />
      </clipPath>
    </defs>
  </defs>
  <g
     id="g3692"
     style="fill:#ffffff;stroke:#ffffff">
    <rect
       id="rect3694"
       height="546"
       style="stroke:none"
       width="984"
       y="0"
       x="0" />
  </g>
  <g
     id="g3696"
     style="font-size:11px;fill:#7acff5;stroke:#7acff5;font-family:sans-serif"
     transform="translate(160,2)">
    <rect
       clip-path="url(#clipPath1)"
       id="rect3698"
       height="35"
       style="stroke:none"
       width="79"
       y="0"
       x="0" />
  </g>
  <g
     id="g3700"
     style="font-size:11px;stroke-linecap:butt;stroke-linejoin:round;stroke-miterlimit:0;font-family:sans-serif"
     transform="translate(160,2)">
    <rect
       clip-path="url(#clipPath1)"
       id="rect3702"
       height="35"
       style="fill:none"
       width="79"
       y="0"
       x="0" />
    <line
       clip-path="url(#clipPath1)"
       id="line3704"
       y2="540"
       style="fill:none;stroke-linejoin:bevel;stroke-dasharray:8, 3"
       y1="35"
       x2="39"
       x1="39" />
  </g>
  <g
     id="g3706"
     style="font-size:11px;fill:#7acff5;stroke:#7acff5;font-family:sans-serif"
     transform="translate(310,2)">
    <rect
       clip-path="url(#clipPath2)"
       id="rect3708"
       height="35"
       style="stroke:none"
       width="99"
       y="0"
       x="0" />
  </g>
  <g
     id="g3710"
     style="font-size:11px;stroke-linecap:butt;stroke-linejoin:round;stroke-miterlimit:0;font-family:sans-serif"
     transform="translate(310,2)">
    <rect
       clip-path="url(#clipPath2)"
       id="rect3712"
       height="35"
       style="fill:none"
       width="99"
       y="0"
       x="0" />
    <line
       clip-path="url(#clipPath2)"
       id="line3714"
       y2="540"
       style="fill:none;stroke-linejoin:bevel;stroke-dasharray:8, 3"
       y1="35"
       x2="49"
       x1="49" />
  </g>
  <g
     id="g3716"
     style="font-size:11px;fill:#7acff5;stroke:#7acff5;font-family:sans-serif"
     transform="translate(510,2)">
    <rect
       clip-path="url(#clipPath1)"
       id="rect3718"
       height="35"
       style="stroke:none"
       width="79"
       y="0"
       x="0" />
  </g>
  <g
     id="g3720"
     style="font-size:11px;stroke-linecap:butt;stroke-linejoin:round;stroke-miterlimit:0;font-family:sans-serif"
     transform="translate(510,2)">
    <rect
       clip-path="url(#clipPath1)"
       id="rect3722"
       height="35"
       style="fill:none"
       width="79"
       y="0"
       x="0" />
    <line
       clip-path="url(#clipPath1)"
       id="line3724"
       y2="540"
       style="fill:none;stroke-linejoin:bevel;stroke-dasharray:8, 3"
       y1="35"
       x2="39"
       x1="39" />
  </g>
  <g
     id="g3726"
     style="font-size:11px;fill:#7acff5;stroke:#7acff5;font-family:sans-serif"
     transform="translate(0,2)">
    <circle
       sodipodi:ry="5"
       sodipodi:rx="5"
       sodipodi:cy="5"
       sodipodi:cx="30"
       d="m 35,5 c 0,2.7614237 -2.238576,5 -5,5 -2.761424,0 -5,-2.2385763 -5,-5 0,-2.7614237 2.238576,-5 5,-5 2.761424,0 5,2.2385763 5,5 z"
       clip-path="url(#clipPath3)"
       id="circle3728"
       cy="5"
       cx="30"
       r="5"
       style="stroke:none" />
    <rect
       clip-path="url(#clipPath3)"
       id="rect3730"
       height="490"
       style="stroke:none"
       width="8"
       y="49"
       x="26" />
  </g>
  <g
     id="g3732"
     style="font-size:11px;stroke-linecap:butt;stroke-linejoin:round;stroke-miterlimit:0;font-family:sans-serif"
     transform="translate(0,2)">
    <circle
       sodipodi:ry="5"
       sodipodi:rx="5"
       sodipodi:cy="5"
       sodipodi:cx="30"
       d="m 35,5 c 0,2.7614237 -2.238576,5 -5,5 -2.761424,0 -5,-2.2385763 -5,-5 0,-2.7614237 2.238576,-5 5,-5 2.761424,0 5,2.2385763 5,5 z"
       clip-path="url(#clipPath3)"
       id="circle3734"
       cy="5"
       cx="30"
       r="5"
       style="fill:none" />
    <rect
       clip-path="url(#clipPath3)"
       id="rect3736"
       height="490"
       style="fill:none"
       width="8"
       y="49"
       x="26" />
    <line
       clip-path="url(#clipPath3)"
       id="line3738"
       y2="25"
       style="fill:none"
       y1="10"
       x2="30"
       x1="30" />
    <line
       clip-path="url(#clipPath3)"
       id="line3740"
       y2="36"
       style="fill:none"
       y1="25"
       x2="21"
       x1="30" />
    <line
       clip-path="url(#clipPath3)"
       id="line3742"
       y2="36"
       style="fill:none"
       y1="25"
       x2="39"
       x1="30" />
    <line
       clip-path="url(#clipPath3)"
       id="line3744"
       y2="16"
       style="fill:none"
       y1="16"
       x2="39"
       x1="21" />
  </g>
  <g
     id="g3746"
     style="font-size:11px;fill:#7acff5;stroke:#7acff5;font-family:sans-serif"
     transform="translate(840,2)">
    <rect
       clip-path="url(#clipPath3)"
       id="rect3748"
       height="35"
       style="stroke:none"
       width="59"
       y="0"
       x="0" />
  </g>
  <g
     id="g3750"
     style="font-size:11px;stroke-linecap:butt;stroke-linejoin:round;stroke-miterlimit:0;font-family:sans-serif"
     transform="translate(840,2)">
    <rect
       clip-path="url(#clipPath3)"
       id="rect3752"
       height="35"
       style="fill:none"
       width="59"
       y="0"
       x="0" />
    <line
       clip-path="url(#clipPath3)"
       id="line3754"
       y2="540"
       style="fill:none;stroke-linejoin:bevel;stroke-dasharray:8, 3"
       y1="35"
       x2="29"
       x1="29" />
  </g>
  <g
     id="g3756"
     style="font-size:11px;fill:#7acff5;stroke:#7acff5;font-family:sans-serif"
     transform="translate(920,2)">
    <rect
       clip-path="url(#clipPath3)"
       id="rect3758"
       height="35"
       style="stroke:none"
       width="59"
       y="0"
       x="0" />
  </g>
  <g
     id="g3760"
     style="font-size:11px;stroke-linecap:butt;stroke-linejoin:round;stroke-miterlimit:0;font-family:sans-serif"
     transform="translate(920,2)">
    <rect
       clip-path="url(#clipPath3)"
       id="rect3762"
       height="35"
       style="fill:none"
       width="59"
       y="0"
       x="0" />
    <line
       clip-path="url(#clipPath3)"
       id="line3764"
       y2="540"
       style="fill:none;stroke-linejoin:bevel;stroke-dasharray:8, 3"
       y1="35"
       x2="29"
       x1="29" />
  </g>
  <g
     id="g3766"
     style="font-size:11px;fill:#7acff5;stroke:#7acff5;font-family:sans-serif"
     transform="translate(196,82)">
    <rect
       clip-path="url(#clipPath4)"
       id="rect3768"
       height="416"
       style="stroke:none"
       width="8"
       y="0"
       x="0" />
  </g>
  <g
     id="g3770"
     style="font-size:11px;stroke-linecap:butt;stroke-linejoin:round;stroke-miterlimit:0;font-family:sans-serif"
     transform="translate(196,82)">
    <rect
       clip-path="url(#clipPath4)"
       id="rect3772"
       height="416"
       style="fill:none"
       width="8"
       y="0"
       x="0" />
  </g>
  <g
     id="g3774"
     style="font-size:11px;fill:#7acff5;stroke:#7acff5;font-family:sans-serif"
     transform="translate(356,102)">
    <rect
       clip-path="url(#clipPath5)"
       id="rect3776"
       height="420"
       style="stroke:none"
       width="8"
       y="0"
       x="0" />
  </g>
  <g
     id="g3778"
     style="font-size:11px;stroke-linecap:butt;stroke-linejoin:round;stroke-miterlimit:0;font-family:sans-serif"
     transform="translate(356,102)">
    <rect
       clip-path="url(#clipPath5)"
       id="rect3780"
       height="420"
       style="fill:none"
       width="8"
       y="0"
       x="0" />
  </g>
  <g
     id="g3782"
     style="font-size:11px;fill:#7acff5;stroke:#7acff5;font-family:sans-serif"
     transform="translate(866,122)">
    <rect
       clip-path="url(#clipPath6)"
       id="rect3784"
       height="400"
       style="stroke:none"
       width="8"
       y="0"
       x="0" />
  </g>
  <g
     id="g3786"
     style="font-size:11px;stroke-linecap:butt;stroke-linejoin:round;stroke-miterlimit:0;font-family:sans-serif"
     transform="translate(866,122)">
    <rect
       clip-path="url(#clipPath6)"
       id="rect3788"
       height="400"
       style="fill:none"
       width="8"
       y="0"
       x="0" />
  </g>
  <g
     id="g3790"
     style="font-size:11px;fill:#7acff5;stroke:#7acff5;font-family:sans-serif"
     transform="translate(546,182)">
    <rect
       clip-path="url(#clipPath7)"
       id="rect3792"
       height="328"
       style="stroke:none"
       width="8"
       y="0"
       x="0" />
  </g>
  <g
     id="g3794"
     style="font-size:11px;stroke-linecap:butt;stroke-linejoin:round;stroke-miterlimit:0;font-family:sans-serif"
     transform="translate(546,182)">
    <rect
       clip-path="url(#clipPath7)"
       id="rect3796"
       height="328"
       style="fill:none"
       width="8"
       y="0"
       x="0" />
  </g>
  <g
     id="g3798"
     style="font-size:11px;fill:#7acff5;stroke:#7acff5;font-family:sans-serif"
     transform="translate(946,362)">
    <rect
       clip-path="url(#clipPath8)"
       id="rect3800"
       height="150"
       style="stroke:none"
       width="8"
       y="0"
       x="0" />
  </g>
  <g
     id="g3802"
     style="font-size:11px;stroke-linecap:butt;stroke-linejoin:round;stroke-miterlimit:0;font-family:sans-serif"
     transform="translate(946,362)">
    <rect
       clip-path="url(#clipPath8)"
       id="rect3804"
       height="150"
       style="fill:none"
       width="8"
       y="0"
       x="0" />
  </g>
  <g
     id="g3806"
     transform="translate(920,2)"
     style="font-size:11px;font-family:sans-serif">
    <text
       clip-path="url(#clipPath9)"
       id="text3808"
       xml:space="preserve"
       style="stroke:none"
       y="11"
       x="20">File</text>
    <text
       clip-path="url(#clipPath9)"
       id="text3810"
       xml:space="preserve"
       style="stroke:none"
       y="25"
       x="9">storage</text>
  </g>
  <g
     id="g3812"
     transform="translate(840,2)"
     style="font-size:11px;font-family:sans-serif">
    <text
       clip-path="url(#clipPath10)"
       id="text3814"
       xml:space="preserve"
       style="stroke:none"
       y="11"
       x="4">Database</text>
  </g>
  <g
     id="g3816"
     transform="translate(5,37)"
     style="font-size:11px;font-family:sans-serif">
    <text
       clip-path="url(#clipPath11)"
       id="text3818"
       xml:space="preserve"
       style="stroke:none"
       y="11"
       x="9">Actor</text>
  </g>
  <g
     id="g3820"
     transform="translate(510,2)"
     style="font-size:11px;font-family:sans-serif">
    <text
       clip-path="url(#clipPath12)"
       id="text3822"
       xml:space="preserve"
       style="stroke:none"
       y="11"
       x="6">DBFSHanfler</text>
  </g>
  <g
     id="g3824"
     transform="translate(310,2)"
     style="font-size:11px;font-family:sans-serif">
    <text
       clip-path="url(#clipPath13)"
       id="text3826"
       xml:space="preserve"
       style="stroke:none"
       y="11"
       x="9">DBAuthHandler</text>
  </g>
  <g
     id="g3828"
     transform="translate(160,2)"
     style="font-size:11px;font-family:sans-serif">
    <text
       clip-path="url(#clipPath12)"
       id="text3830"
       xml:space="preserve"
       style="stroke:none"
       y="11"
       x="7">HTTP server</text>
  </g>
  <g
     id="g3832"
     style="font-size:11px;stroke-linecap:butt;stroke-linejoin:round;font-family:sans-serif"
     transform="translate(-16,32)">
    <line
       clip-path="url(#clipPath14)"
       id="line3834"
       y2="50"
       style="fill:none"
       y1="50"
       x2="212"
       x1="50" />
    <polygon
       clip-path="url(#clipPath14)"
       id="polygon3836"
       points="200,56 212,50 200,44 "
       style="stroke:none" />
    <polygon
       clip-path="url(#clipPath14)"
       id="polygon3838"
       points="200,56 212,50 200,44 "
       style="fill:none" />
  </g>
  <g
     id="g3840"
     style="font-size:11px;stroke-linecap:butt;stroke-linejoin:round;font-family:sans-serif"
     transform="translate(-16,402)">
    <line
       clip-path="url(#clipPath14)"
       id="line3842"
       y2="50"
       style="fill:none"
       y1="50"
       x2="50"
       x1="212" />
    <polygon
       clip-path="url(#clipPath14)"
       id="polygon3844"
       points="62,44 50,50 62,56 "
       style="stroke:none" />
    <polygon
       clip-path="url(#clipPath14)"
       id="polygon3846"
       points="62,44 50,50 62,56 "
       style="fill:none" />
  </g>
  <g
     id="g3848"
     style="font-size:11px;stroke-linecap:butt;stroke-linejoin:round;font-family:sans-serif"
     transform="translate(154,52)">
    <line
       clip-path="url(#clipPath15)"
       id="line3850"
       y2="50"
       style="fill:none"
       y1="50"
       x2="202"
       x1="50" />
    <polygon
       clip-path="url(#clipPath15)"
       id="polygon3852"
       points="190,56 202,50 190,44 "
       style="stroke:none" />
    <polygon
       clip-path="url(#clipPath15)"
       id="polygon3854"
       points="190,56 202,50 190,44 "
       style="fill:none" />
  </g>
  <g
     id="g3856"
     style="font-size:11px;stroke-linecap:butt;stroke-linejoin:round;font-family:sans-serif"
     transform="translate(314,132)">
    <line
       clip-path="url(#clipPath16)"
       id="line3858"
       y2="50"
       style="fill:none"
       y1="50"
       x2="232"
       x1="50" />
    <polygon
       clip-path="url(#clipPath16)"
       id="polygon3860"
       points="220,56 232,50 220,44 "
       style="stroke:none" />
    <polygon
       clip-path="url(#clipPath16)"
       id="polygon3862"
       points="220,56 232,50 220,44 "
       style="fill:none" />
  </g>
  <g
     id="g3864"
     style="font-size:11px;stroke-linecap:butt;stroke-linejoin:round;font-family:sans-serif"
     transform="translate(154,382)">
    <line
       clip-path="url(#clipPath17)"
       id="line3866"
       y2="50"
       style="fill:none"
       y1="50"
       x2="50"
       x1="392" />
    <polygon
       clip-path="url(#clipPath17)"
       id="polygon3868"
       points="62,44 50,50 62,56 "
       style="stroke:none" />
    <polygon
       clip-path="url(#clipPath17)"
       id="polygon3870"
       points="62,44 50,50 62,56 "
       style="fill:none" />
  </g>
  <g
     id="g3872"
     style="font-size:11px;stroke-linecap:butt;stroke-linejoin:round;font-family:sans-serif"
     transform="translate(314,72)">
    <line
       clip-path="url(#clipPath18)"
       id="line3874"
       y2="50"
       style="fill:none"
       y1="50"
       x2="552"
       x1="50" />
    <polygon
       clip-path="url(#clipPath18)"
       id="polygon3876"
       points="540,56 552,50 540,44 "
       style="stroke:none" />
    <polygon
       clip-path="url(#clipPath18)"
       id="polygon3878"
       points="540,56 552,50 540,44 "
       style="fill:none" />
  </g>
  <g
     id="g3880"
     style="font-size:11px;stroke-linecap:butt;stroke-linejoin:round;font-family:sans-serif"
     transform="translate(504,162)">
    <line
       clip-path="url(#clipPath19)"
       id="line3882"
       y2="50"
       style="fill:none"
       y1="50"
       x2="362"
       x1="50" />
    <polygon
       clip-path="url(#clipPath19)"
       id="polygon3884"
       points="350,56 362,50 350,44 "
       style="stroke:none" />
    <polygon
       clip-path="url(#clipPath19)"
       id="polygon3886"
       points="350,56 362,50 350,44 "
       style="fill:none" />
  </g>
  <g
     id="g3888"
     style="font-size:11px;stroke-linecap:butt;stroke-linejoin:round;font-family:sans-serif"
     transform="translate(314,102)">
    <line
       clip-path="url(#clipPath18)"
       id="line3890"
       y2="50"
       style="fill:none"
       y1="50"
       x2="50"
       x1="552" />
    <polygon
       clip-path="url(#clipPath18)"
       id="polygon3892"
       points="62,44 50,50 62,56 "
       style="stroke:none" />
    <polygon
       clip-path="url(#clipPath18)"
       id="polygon3894"
       points="62,44 50,50 62,56 "
       style="fill:none" />
  </g>
  <g
     id="g3896"
     style="font-size:11px;stroke-linecap:butt;stroke-linejoin:round;font-family:sans-serif"
     transform="translate(504,192)">
    <line
       clip-path="url(#clipPath19)"
       id="line3898"
       y2="50"
       style="fill:none"
       y1="50"
       x2="50"
       x1="362" />
    <polygon
       clip-path="url(#clipPath19)"
       id="polygon3900"
       points="62,44 50,50 62,56 "
       style="stroke:none" />
    <polygon
       clip-path="url(#clipPath19)"
       id="polygon3902"
       points="62,44 50,50 62,56 "
       style="fill:none" />
  </g>
  <g
     id="g3904"
     style="font-size:11px;stroke-linecap:butt;stroke-linejoin:round;font-family:sans-serif"
     transform="translate(504,312)">
    <line
       clip-path="url(#clipPath20)"
       id="line3906"
       y2="50"
       style="fill:none"
       y1="50"
       x2="442"
       x1="50" />
    <polygon
       clip-path="url(#clipPath20)"
       id="polygon3908"
       points="430,56 442,50 430,44 "
       style="stroke:none" />
    <polygon
       clip-path="url(#clipPath20)"
       id="polygon3910"
       points="430,56 442,50 430,44 "
       style="fill:none" />
  </g>
  <g
     id="g3912"
     style="font-size:11px;stroke-linecap:butt;stroke-linejoin:round;font-family:sans-serif"
     transform="translate(504,352)">
    <line
       clip-path="url(#clipPath20)"
       id="line3914"
       y2="50"
       style="fill:none"
       y1="50"
       x2="50"
       x1="442" />
    <polygon
       clip-path="url(#clipPath20)"
       id="polygon3916"
       points="62,44 50,50 62,56 "
       style="stroke:none" />
    <polygon
       clip-path="url(#clipPath20)"
       id="polygon3918"
       points="62,44 50,50 62,56 "
       style="fill:none" />
  </g>
  <g
     id="g3920"
     style="font-size:11px;stroke-linecap:butt;stroke-linejoin:round;font-family:sans-serif"
     transform="translate(504,222)">
    <line
       clip-path="url(#clipPath19)"
       id="line3922"
       y2="50"
       style="fill:none"
       y1="50"
       x2="362"
       x1="50" />
    <polygon
       clip-path="url(#clipPath19)"
       id="polygon3924"
       points="350,56 362,50 350,44 "
       style="stroke:none" />
    <polygon
       clip-path="url(#clipPath19)"
       id="polygon3926"
       points="350,56 362,50 350,44 "
       style="fill:none" />
  </g>
  <g
     id="g3928"
     style="font-size:11px;stroke-linecap:butt;stroke-linejoin:round;font-family:sans-serif"
     transform="translate(504,252)">
    <line
       clip-path="url(#clipPath19)"
       id="line3930"
       y2="50"
       style="fill:none"
       y1="50"
       x2="50"
       x1="362" />
    <polygon
       clip-path="url(#clipPath19)"
       id="polygon3932"
       points="62,44 50,50 62,56 "
       style="stroke:none" />
    <polygon
       clip-path="url(#clipPath19)"
       id="polygon3934"
       points="62,44 50,50 62,56 "
       style="fill:none" />
  </g>
  <g
     id="g3936"
     style="font-size:11px;stroke-linecap:butt;stroke-linejoin:round;font-family:sans-serif"
     transform="translate(504,262)">
    <line
       clip-path="url(#clipPath21)"
       id="line3938"
       y2="50"
       style="fill:none"
       y1="50"
       x2="76"
       x1="50" />
    <line
       clip-path="url(#clipPath21)"
       id="line3940"
       y2="70"
       style="fill:none"
       y1="50"
       x2="76"
       x1="76" />
    <line
       clip-path="url(#clipPath21)"
       id="line3942"
       y2="70"
       style="fill:none"
       y1="70"
       x2="50"
       x1="76" />
    <polygon
       clip-path="url(#clipPath21)"
       id="polygon3944"
       points="62,64 50,70 62,76 "
       style="stroke:none" />
    <polygon
       clip-path="url(#clipPath21)"
       id="polygon3946"
       points="62,64 50,70 62,76 "
       style="fill:none" />
  </g>
  <g
     id="g3948"
     transform="translate(578,312)"
     style="font-size:11px;font-family:sans-serif">
    <text
       clip-path="url(#clipPath22)"
       id="text3950"
       xml:space="preserve"
       style="stroke:none"
       y="11"
       x="11">10: Определение версии объекта для записи</text>
  </g>
  <g
     id="g3952"
     transform="translate(617,283)"
     style="font-size:11px;font-family:sans-serif">
    <text
       clip-path="url(#clipPath23)"
       id="text3954"
       xml:space="preserve"
       style="stroke:none"
       y="11"
       x="10">9: Получение атрибута history</text>
  </g>
  <g
     id="g3956"
     transform="translate(555,252)"
     style="font-size:11px;font-family:sans-serif">
    <text
       clip-path="url(#clipPath24)"
       id="text3958"
       xml:space="preserve"
       style="stroke:none"
       y="11"
       x="11">8: Запрос атрибута history родительского каталога</text>
  </g>
  <g
     id="g3960"
     transform="translate(600,382)"
     style="font-size:11px;font-family:sans-serif">
    <text
       clip-path="url(#clipPath25)"
       id="text3962"
       xml:space="preserve"
       style="stroke:none"
       y="11"
       x="11">12: Подтверждение записи</text>
  </g>
  <g
     id="g3964"
     transform="translate(580,342)"
     style="font-size:11px;font-family:sans-serif">
    <text
       clip-path="url(#clipPath26)"
       id="text3966"
       xml:space="preserve"
       style="stroke:none"
       y="11"
       x="10">11: Запись содержимого файла</text>
  </g>
  <g
     id="g3968"
     transform="translate(595,223)"
     style="font-size:11px;font-family:sans-serif">
    <text
       clip-path="url(#clipPath27)"
       id="text3970"
       xml:space="preserve"
       style="stroke:none"
       y="11"
       x="11">7: Получение текущей версии объекта</text>
  </g>
  <g
     id="g3972"
     transform="translate(487,133)"
     style="font-size:11px;font-family:sans-serif">
    <text
       clip-path="url(#clipPath28)"
       id="text3974"
       xml:space="preserve"
       style="stroke:none"
       y="11"
       x="11">4: Получение прав пользователя на объект</text>
  </g>
  <g
     id="g3976"
     transform="translate(606,192)"
     style="font-size:11px;font-family:sans-serif">
    <text
       clip-path="url(#clipPath29)"
       id="text3978"
       xml:space="preserve"
       style="stroke:none"
       y="11"
       x="10">6: Запрос информации об объекте</text>
  </g>
  <g
     id="g3980"
     transform="translate(505,102)"
     style="font-size:11px;font-family:sans-serif">
    <text
       clip-path="url(#clipPath30)"
       id="text3982"
       xml:space="preserve"
       style="stroke:none"
       y="11"
       x="10">3: Запрос прав доступа</text>
  </g>
  <g
     id="g3984"
     transform="translate(360,412)"
     style="font-size:11px;font-family:sans-serif">
    <text
       clip-path="url(#clipPath31)"
       id="text3986"
       xml:space="preserve"
       style="stroke:none"
       y="11"
       x="13">13: Передача кода ошибки</text>
  </g>
  <g
     id="g3988"
     transform="translate(385,163)"
     style="font-size:11px;font-family:sans-serif">
    <text
       clip-path="url(#clipPath32)"
       id="text3990"
       xml:space="preserve"
       style="stroke:none"
       y="11"
       x="10">5: Обработка запроса</text>
  </g>
  <g
     id="g3992"
     transform="translate(210,83)"
     style="font-size:11px;font-family:sans-serif">
    <text
       clip-path="url(#clipPath32)"
       id="text3994"
       xml:space="preserve"
       style="stroke:none"
       y="11"
       x="10">2: Обработка запроса</text>
  </g>
  <g
     id="g3996"
     transform="translate(30,432)"
     style="font-size:11px;font-family:sans-serif">
    <text
       clip-path="url(#clipPath31)"
       id="text3998"
       xml:space="preserve"
       style="stroke:none"
       y="11"
       x="13">14: Передача кода ошибки</text>
  </g>
  <g
     id="g4000"
     transform="translate(50,62)"
     style="font-size:11px;font-family:sans-serif">
    <text
       clip-path="url(#clipPath33)"
       id="text4002"
       xml:space="preserve"
       style="stroke:none"
       y="11"
       x="11">1: Пересылка файла</text>
  </g>
</svg>
