<?xml version="1.0" encoding="UTF-8" standalone="no"?>
<svg
   xmlns:dc="http://purl.org/dc/elements/1.1/"
   xmlns:cc="http://creativecommons.org/ns#"
   xmlns:rdf="http://www.w3.org/1999/02/22-rdf-syntax-ns#"
   xmlns:svg="http://www.w3.org/2000/svg"
   xmlns="http://www.w3.org/2000/svg"
   xmlns:sodipodi="http://sodipodi.sourceforge.net/DTD/sodipodi-0.dtd"
   xmlns:inkscape="http://www.inkscape.org/namespaces/inkscape"
   style="fill-opacity:1; color-rendering:auto; color-interpolation:auto; stroke:black; text-rendering:auto; stroke-linecap:square; stroke-miterlimit:10; stroke-opacity:1; shape-rendering:auto; fill:black; stroke-dasharray:none; font-weight:normal; stroke-width:1; font-family:'Dialog'; font-style:normal; stroke-linejoin:miter; font-size:12; stroke-dashoffset:0; image-rendering:auto;"
   width="694"
   height="456"
   id="svg4019"
   version="1.1"
   inkscape:version="0.48.0 r9654"
   sodipodi:docname="SA usecase.svg"
   inkscape:export-filename="/home/savant/workspace/davstorage/doc/dpl/pictures/SA usecase.png"
   inkscape:export-xdpi="90"
   inkscape:export-ydpi="90">
  <metadata
     id="metadata4624">
    <rdf:RDF>
      <cc:Work
         rdf:about="">
        <dc:format>image/svg+xml</dc:format>
        <dc:type
           rdf:resource="http://purl.org/dc/dcmitype/StillImage" />
        <dc:title></dc:title>
      </cc:Work>
    </rdf:RDF>
  </metadata>
  <sodipodi:namedview
     pagecolor="#ffffff"
     bordercolor="#666666"
     borderopacity="1"
     objecttolerance="10"
     gridtolerance="10"
     guidetolerance="10"
     inkscape:pageopacity="0"
     inkscape:pageshadow="2"
     inkscape:window-width="1440"
     inkscape:window-height="849"
     id="namedview4622"
     showgrid="false"
     inkscape:zoom="0.57675439"
     inkscape:cx="347"
     inkscape:cy="228"
     inkscape:window-x="-2"
     inkscape:window-y="26"
     inkscape:window-maximized="1"
     inkscape:current-layer="svg4019" />
  <!--Generated by the Batik Graphics2D SVG Generator-->
  <defs
     id="genericDefs">
    <defs
       id="defs1">
      <clipPath
         id="clipPath1"
         clipPathUnits="userSpaceOnUse">
        <path
           id="path4026"
           d="M-3 -3 L37 -3 L37 67 L-3 67 L-3 -3 Z" />
      </clipPath>
      <clipPath
         id="clipPath2"
         clipPathUnits="userSpaceOnUse">
        <path
           id="path4029"
           d="M-3 -3 L157 -3 L157 57 L-3 57 L-3 -3 Z" />
      </clipPath>
      <clipPath
         id="clipPath3"
         clipPathUnits="userSpaceOnUse">
        <path
           id="path4032"
           d="M-3 -3 L147 -3 L147 67 L-3 67 L-3 -3 Z" />
      </clipPath>
      <clipPath
         id="clipPath4"
         clipPathUnits="userSpaceOnUse">
        <path
           id="path4035"
           d="M-3 -3 L97 -3 L97 47 L-3 47 L-3 -3 Z" />
      </clipPath>
      <clipPath
         id="clipPath5"
         clipPathUnits="userSpaceOnUse">
        <path
           id="path4038"
           d="M-3 -3 L137 -3 L137 47 L-3 47 L-3 -3 Z" />
      </clipPath>
      <clipPath
         id="clipPath6"
         clipPathUnits="userSpaceOnUse">
        <path
           id="path4041"
           d="M-3 -3 L117 -3 L117 67 L-3 67 L-3 -3 Z" />
      </clipPath>
      <clipPath
         id="clipPath7"
         clipPathUnits="userSpaceOnUse">
        <path
           id="path4044"
           d="M-3 -3 L127 -3 L127 77 L-3 77 L-3 -3 Z" />
      </clipPath>
      <clipPath
         id="clipPath8"
         clipPathUnits="userSpaceOnUse">
        <path
           id="path4047"
           d="M-3 -3 L87 -3 L87 67 L-3 67 L-3 -3 Z" />
      </clipPath>
      <clipPath
         id="clipPath9"
         clipPathUnits="userSpaceOnUse">
        <path
           id="path4050"
           d="M-3 -3 L167 -3 L167 87 L-3 87 L-3 -3 Z" />
      </clipPath>
      <clipPath
         id="clipPath10"
         clipPathUnits="userSpaceOnUse">
        <path
           id="path4053"
           d="M-3 -3 L87 -3 L87 47 L-3 47 L-3 -3 Z" />
      </clipPath>
      <clipPath
         id="clipPath11"
         clipPathUnits="userSpaceOnUse">
        <path
           id="path4056"
           d="M-3 -3 L177 -3 L177 77 L-3 77 L-3 -3 Z" />
      </clipPath>
      <clipPath
         id="clipPath12"
         clipPathUnits="userSpaceOnUse">
        <path
           id="path4059"
           d="M-3 -3 L177 -3 L177 87 L-3 87 L-3 -3 Z" />
      </clipPath>
      <clipPath
         id="clipPath13"
         clipPathUnits="userSpaceOnUse">
        <path
           id="path4062"
           d="M-170 -80 L340 -80 L340 160 L-170 160 L-170 -80 Z" />
      </clipPath>
      <clipPath
         id="clipPath14"
         clipPathUnits="userSpaceOnUse">
        <path
           id="path4065"
           d="M-140 -60 L280 -60 L280 120 L-140 120 L-140 -60 Z" />
      </clipPath>
      <clipPath
         id="clipPath15"
         clipPathUnits="userSpaceOnUse">
        <path
           id="path4068"
           d="M-120 -70 L240 -70 L240 140 L-120 140 L-120 -70 Z" />
      </clipPath>
      <clipPath
         id="clipPath16"
         clipPathUnits="userSpaceOnUse">
        <path
           id="path4071"
           d="M-170 -70 L340 -70 L340 140 L-170 140 L-170 -70 Z" />
      </clipPath>
      <clipPath
         id="clipPath17"
         clipPathUnits="userSpaceOnUse">
        <path
           id="path4074"
           d="M-80 -40 L160 -40 L160 80 L-80 80 L-80 -40 Z" />
      </clipPath>
      <clipPath
         id="clipPath18"
         clipPathUnits="userSpaceOnUse">
        <path
           id="path4077"
           d="M-160 -80 L320 -80 L320 160 L-160 160 L-160 -80 Z" />
      </clipPath>
      <clipPath
         id="clipPath19"
         clipPathUnits="userSpaceOnUse">
        <path
           id="path4080"
           d="M-80 -60 L160 -60 L160 120 L-80 120 L-80 -60 Z" />
      </clipPath>
      <clipPath
         id="clipPath20"
         clipPathUnits="userSpaceOnUse">
        <path
           id="path4083"
           d="M-110 -60 L220 -60 L220 120 L-110 120 L-110 -60 Z" />
      </clipPath>
      <clipPath
         id="clipPath21"
         clipPathUnits="userSpaceOnUse">
        <path
           id="path4086"
           d="M-130 -40 L260 -40 L260 80 L-130 80 L-130 -40 Z" />
      </clipPath>
      <clipPath
         id="clipPath22"
         clipPathUnits="userSpaceOnUse">
        <path
           id="path4089"
           d="M-90 -40 L180 -40 L180 80 L-90 80 L-90 -40 Z" />
      </clipPath>
      <clipPath
         id="clipPath23"
         clipPathUnits="userSpaceOnUse">
        <path
           id="path4092"
           d="M-150 -50 L300 -50 L300 100 L-150 100 L-150 -50 Z" />
      </clipPath>
      <clipPath
         id="clipPath24"
         clipPathUnits="userSpaceOnUse">
        <path
           id="path4095"
           d="M-33 -13 L66 -13 L66 26 L-33 26 L-33 -13 Z" />
      </clipPath>
      <clipPath
         id="clipPath25"
         clipPathUnits="userSpaceOnUse">
        <path
           id="path4098"
           d="M0 0 L115 0 L115 115 L0 115 L0 0 Z" />
      </clipPath>
      <clipPath
         id="clipPath26"
         clipPathUnits="userSpaceOnUse">
        <path
           id="path4101"
           d="M0 0 L115 0 L115 196 L0 196 L0 0 Z" />
      </clipPath>
      <clipPath
         id="clipPath27"
         clipPathUnits="userSpaceOnUse">
        <path
           id="path4104"
           d="M0 0 L222 0 L222 244 L0 244 L0 0 Z" />
      </clipPath>
      <clipPath
         id="clipPath28"
         clipPathUnits="userSpaceOnUse">
        <path
           id="path4107"
           d="M0 0 L115 0 L115 235 L0 235 L0 0 Z" />
      </clipPath>
      <clipPath
         id="clipPath29"
         clipPathUnits="userSpaceOnUse">
        <path
           id="path4110"
           d="M0 0 L157 0 L157 157 L0 157 L0 0 Z" />
      </clipPath>
      <clipPath
         id="clipPath30"
         clipPathUnits="userSpaceOnUse">
        <path
           id="path4113"
           d="M0 0 L205 0 L205 242 L0 242 L0 0 Z" />
      </clipPath>
      <clipPath
         id="clipPath31"
         clipPathUnits="userSpaceOnUse">
        <path
           id="path4116"
           d="M0 0 L160 0 L160 160 L0 160 L0 0 Z" />
      </clipPath>
      <clipPath
         id="clipPath32"
         clipPathUnits="userSpaceOnUse">
        <path
           id="path4119"
           d="M0 0 L228 0 L228 118 L0 118 L0 0 Z" />
      </clipPath>
      <clipPath
         id="clipPath33"
         clipPathUnits="userSpaceOnUse">
        <path
           id="path4122"
           d="M0 0 L115 0 L115 167 L0 167 L0 0 Z" />
      </clipPath>
      <clipPath
         id="clipPath34"
         clipPathUnits="userSpaceOnUse">
        <path
           id="path4125"
           d="M0 0 L157 0 L157 115 L0 115 L0 0 Z" />
      </clipPath>
      <clipPath
         id="clipPath35"
         clipPathUnits="userSpaceOnUse">
        <path
           id="path4128"
           d="M0 0 L183 0 L183 141 L0 141 L0 0 Z" />
      </clipPath>
      <clipPath
         id="clipPath36"
         clipPathUnits="userSpaceOnUse">
        <path
           id="path4131"
           d="M0 0 L117 0 L117 177 L0 177 L0 0 Z" />
      </clipPath>
      <clipPath
         id="clipPath37"
         clipPathUnits="userSpaceOnUse">
        <path
           id="path4134"
           d="M0 0 L171 0 L171 153 L0 153 L0 0 Z" />
      </clipPath>
      <clipPath
         id="clipPath38"
         clipPathUnits="userSpaceOnUse">
        <path
           id="path4137"
           d="M0 0 L115 0 L115 218 L0 218 L0 0 Z" />
      </clipPath>
      <clipPath
         id="clipPath39"
         clipPathUnits="userSpaceOnUse">
        <path
           id="path4140"
           d="M-94 -14 L188 -14 L188 28 L-94 28 L-94 -14 Z" />
      </clipPath>
      <clipPath
         id="clipPath40"
         clipPathUnits="userSpaceOnUse">
        <path
           id="path4143"
           d="M-96 -16 L192 -16 L192 32 L-96 32 L-96 -16 Z" />
      </clipPath>
      <clipPath
         id="clipPath41"
         clipPathUnits="userSpaceOnUse">
        <path
           id="path4146"
           d="M-93 -13 L186 -13 L186 26 L-93 26 L-93 -13 Z" />
      </clipPath>
    </defs>
  </defs>
  <g
     id="g4148"
     style="fill:#ffffff;stroke:#ffffff">
    <rect
       id="rect4150"
       height="456"
       style="stroke:none"
       width="694"
       y="0"
       x="0" />
  </g>
  <g
     id="g4152"
     style="font-size:11px;fill:#7acff5;stroke:#7acff5;font-family:sans-serif"
     transform="translate(320,212)">
    <circle
       sodipodi:ry="7.5"
       sodipodi:rx="7.5"
       sodipodi:cy="7.5"
       sodipodi:cx="14.5"
       d="M 22,7.5 C 22,11.642136 18.642136,15 14.5,15 10.357864,15 7,11.642136 7,7.5 7,3.3578644 10.357864,0 14.5,0 18.642136,0 22,3.3578644 22,7.5 z"
       clip-path="url(#clipPath1)"
       id="circle4154"
       cy="7.5"
       cx="14.5"
       r="7.5"
       style="stroke:none" />
  </g>
  <g
     id="g4156"
     style="font-size:11px;stroke-linecap:butt;stroke-linejoin:round;stroke-miterlimit:0;font-family:sans-serif"
     transform="translate(320,212)">
    <circle
       sodipodi:ry="7.5"
       sodipodi:rx="7.5"
       sodipodi:cy="7.5"
       sodipodi:cx="14.5"
       d="M 22,7.5 C 22,11.642136 18.642136,15 14.5,15 10.357864,15 7,11.642136 7,7.5 7,3.3578644 10.357864,0 14.5,0 18.642136,0 22,3.3578644 22,7.5 z"
       clip-path="url(#clipPath1)"
       id="circle4158"
       cy="7.5"
       cx="14.5"
       r="7.5"
       style="fill:none" />
    <line
       clip-path="url(#clipPath1)"
       id="line4160"
       y2="40"
       style="fill:none"
       y1="15"
       x2="15"
       x1="15" />
    <line
       clip-path="url(#clipPath1)"
       id="line4162"
       y2="24"
       style="fill:none"
       y1="24"
       x2="30"
       x1="0" />
    <line
       clip-path="url(#clipPath1)"
       id="line4164"
       y2="60"
       style="fill:none"
       y1="40"
       x2="0"
       x1="15" />
    <line
       clip-path="url(#clipPath1)"
       id="line4166"
       y2="60"
       style="fill:none"
       y1="40"
       x2="30"
       x1="15" />
  </g>
  <g
     id="g4168"
     style="font-size:11px;fill:#7acff5;stroke:#7acff5;font-family:sans-serif"
     transform="translate(270,162)">
    <ellipse
       sodipodi:ry="25"
       sodipodi:rx="75"
       sodipodi:cy="25"
       sodipodi:cx="75"
       d="M 150,25 C 150,38.807119 116.42136,50 75,50 33.578644,50 0,38.807119 0,25 0,11.192881 33.578644,0 75,0 c 41.42136,0 75,11.192881 75,25 z"
       clip-path="url(#clipPath2)"
       id="ellipse4170"
       cy="25"
       ry="25"
       cx="75"
       rx="75"
       style="stroke:none" />
  </g>
  <g
     id="g4172"
     style="font-size:11px;stroke-linecap:butt;stroke-linejoin:round;stroke-miterlimit:0;font-family:sans-serif"
     transform="translate(270,162)">
    <ellipse
       sodipodi:ry="25"
       sodipodi:rx="75"
       sodipodi:cy="25"
       sodipodi:cx="75"
       d="M 150,25 C 150,38.807119 116.42136,50 75,50 33.578644,50 0,38.807119 0,25 0,11.192881 33.578644,0 75,0 c 41.42136,0 75,11.192881 75,25 z"
       clip-path="url(#clipPath2)"
       id="ellipse4174"
       cy="25"
       ry="25"
       cx="75"
       rx="75"
       style="fill:none" />
  </g>
  <g
     id="g4176"
     style="font-size:11px;fill:#7acff5;stroke:#7acff5;font-family:sans-serif"
     transform="translate(330,22)">
    <ellipse
       sodipodi:ry="30"
       sodipodi:rx="70"
       sodipodi:cy="30"
       sodipodi:cx="70"
       d="M 140,30 C 140,46.568542 108.65993,60 70,60 31.340068,60 0,46.568542 0,30 0,13.431458 31.340068,0 70,0 c 38.65993,0 70,13.431458 70,30 z"
       clip-path="url(#clipPath3)"
       id="ellipse4178"
       cy="30"
       ry="30"
       cx="70"
       rx="70"
       style="stroke:none" />
  </g>
  <g
     id="g4180"
     style="font-size:11px;stroke-linecap:butt;stroke-linejoin:round;stroke-miterlimit:0;font-family:sans-serif"
     transform="translate(330,22)">
    <ellipse
       sodipodi:ry="30"
       sodipodi:rx="70"
       sodipodi:cy="30"
       sodipodi:cx="70"
       d="M 140,30 C 140,46.568542 108.65993,60 70,60 31.340068,60 0,46.568542 0,30 0,13.431458 31.340068,0 70,0 c 38.65993,0 70,13.431458 70,30 z"
       clip-path="url(#clipPath3)"
       id="ellipse4182"
       cy="30"
       ry="30"
       cx="70"
       rx="70"
       style="fill:none" />
  </g>
  <g
     id="g4184"
     style="font-size:11px;fill:#7acff5;stroke:#7acff5;font-family:sans-serif"
     transform="translate(90,12)">
    <ellipse
       sodipodi:ry="20"
       sodipodi:rx="45"
       sodipodi:cy="20"
       sodipodi:cx="45"
       d="M 90,20 C 90,31.045695 69.852814,40 45,40 20.147186,40 0,31.045695 0,20 0,8.954305 20.147186,0 45,0 69.852814,0 90,8.954305 90,20 z"
       clip-path="url(#clipPath4)"
       id="ellipse4186"
       cy="20"
       ry="20"
       cx="45"
       rx="45"
       style="stroke:none" />
  </g>
  <g
     id="g4188"
     style="font-size:11px;stroke-linecap:butt;stroke-linejoin:round;stroke-miterlimit:0;font-family:sans-serif"
     transform="translate(90,12)">
    <ellipse
       sodipodi:ry="20"
       sodipodi:rx="45"
       sodipodi:cy="20"
       sodipodi:cx="45"
       d="M 90,20 C 90,31.045695 69.852814,40 45,40 20.147186,40 0,31.045695 0,20 0,8.954305 20.147186,0 45,0 69.852814,0 90,8.954305 90,20 z"
       clip-path="url(#clipPath4)"
       id="ellipse4190"
       cy="20"
       ry="20"
       cx="45"
       rx="45"
       style="fill:none" />
  </g>
  <g
     id="g4192"
     style="font-size:11px;fill:#7acff5;stroke:#7acff5;font-family:sans-serif"
     transform="translate(210,2)">
    <ellipse
       sodipodi:ry="20"
       sodipodi:rx="65"
       sodipodi:cy="20"
       sodipodi:cx="65"
       d="M 130,20 C 130,31.045695 100.89851,40 65,40 29.101491,40 0,31.045695 0,20 0,8.954305 29.101491,0 65,0 c 35.89851,0 65,8.954305 65,20 z"
       clip-path="url(#clipPath5)"
       id="ellipse4194"
       cy="20"
       ry="20"
       cx="65"
       rx="65"
       style="stroke:none" />
  </g>
  <g
     id="g4196"
     style="font-size:11px;stroke-linecap:butt;stroke-linejoin:round;stroke-miterlimit:0;font-family:sans-serif"
     transform="translate(210,2)">
    <ellipse
       sodipodi:ry="20"
       sodipodi:rx="65"
       sodipodi:cy="20"
       sodipodi:cx="65"
       d="M 130,20 C 130,31.045695 100.89851,40 65,40 29.101491,40 0,31.045695 0,20 0,8.954305 29.101491,0 65,0 c 35.89851,0 65,8.954305 65,20 z"
       clip-path="url(#clipPath5)"
       id="ellipse4198"
       cy="20"
       ry="20"
       cx="65"
       rx="65"
       style="fill:none" />
  </g>
  <g
     id="g4200"
     style="font-size:11px;fill:#7acff5;stroke:#7acff5;font-family:sans-serif"
     transform="translate(440,232)">
    <ellipse
       sodipodi:ry="30"
       sodipodi:rx="55"
       sodipodi:cy="30"
       sodipodi:cx="55"
       d="M 110,30 C 110,46.568542 85.375661,60 55,60 24.624339,60 0,46.568542 0,30 0,13.431458 24.624339,0 55,0 c 30.375661,0 55,13.431458 55,30 z"
       clip-path="url(#clipPath6)"
       id="ellipse4202"
       cy="30"
       ry="30"
       cx="55"
       rx="55"
       style="stroke:none" />
  </g>
  <g
     id="g4204"
     style="font-size:11px;stroke-linecap:butt;stroke-linejoin:round;stroke-miterlimit:0;font-family:sans-serif"
     transform="translate(440,232)">
    <ellipse
       sodipodi:ry="30"
       sodipodi:rx="55"
       sodipodi:cy="30"
       sodipodi:cx="55"
       d="M 110,30 C 110,46.568542 85.375661,60 55,60 24.624339,60 0,46.568542 0,30 0,13.431458 24.624339,0 55,0 c 30.375661,0 55,13.431458 55,30 z"
       clip-path="url(#clipPath6)"
       id="ellipse4206"
       cy="30"
       ry="30"
       cx="55"
       rx="55"
       style="fill:none" />
  </g>
  <g
     id="g4208"
     style="font-size:11px;fill:#7acff5;stroke:#7acff5;font-family:sans-serif"
     transform="translate(490,2)">
    <ellipse
       sodipodi:ry="30"
       sodipodi:rx="55"
       sodipodi:cy="30"
       sodipodi:cx="55"
       d="M 110,30 C 110,46.568542 85.375661,60 55,60 24.624339,60 0,46.568542 0,30 0,13.431458 24.624339,0 55,0 c 30.375661,0 55,13.431458 55,30 z"
       clip-path="url(#clipPath6)"
       id="ellipse4210"
       cy="30"
       ry="30"
       cx="55"
       rx="55"
       style="stroke:none" />
  </g>
  <g
     id="g4212"
     style="font-size:11px;stroke-linecap:butt;stroke-linejoin:round;stroke-miterlimit:0;font-family:sans-serif"
     transform="translate(490,2)">
    <ellipse
       sodipodi:ry="30"
       sodipodi:rx="55"
       sodipodi:cy="30"
       sodipodi:cx="55"
       d="M 110,30 C 110,46.568542 85.375661,60 55,60 24.624339,60 0,46.568542 0,30 0,13.431458 24.624339,0 55,0 c 30.375661,0 55,13.431458 55,30 z"
       clip-path="url(#clipPath6)"
       id="ellipse4214"
       cy="30"
       ry="30"
       cx="55"
       rx="55"
       style="fill:none" />
  </g>
  <g
     id="g4216"
     style="font-size:11px;fill:#7acff5;stroke:#7acff5;font-family:sans-serif"
     transform="translate(570,142)">
    <ellipse
       sodipodi:ry="35"
       sodipodi:rx="60"
       sodipodi:cy="35"
       sodipodi:cx="60"
       d="M 120,35 C 120,54.329966 93.137085,70 60,70 26.862915,70 0,54.329966 0,35 0,15.670034 26.862915,0 60,0 c 33.137085,0 60,15.670034 60,35 z"
       clip-path="url(#clipPath7)"
       id="ellipse4218"
       cy="35"
       ry="35"
       cx="60"
       rx="60"
       style="stroke:none" />
  </g>
  <g
     id="g4220"
     style="font-size:11px;stroke-linecap:butt;stroke-linejoin:round;stroke-miterlimit:0;font-family:sans-serif"
     transform="translate(570,142)">
    <ellipse
       sodipodi:ry="35"
       sodipodi:rx="60"
       sodipodi:cy="35"
       sodipodi:cx="60"
       d="M 120,35 C 120,54.329966 93.137085,70 60,70 26.862915,70 0,54.329966 0,35 0,15.670034 26.862915,0 60,0 c 33.137085,0 60,15.670034 60,35 z"
       clip-path="url(#clipPath7)"
       id="ellipse4222"
       cy="35"
       ry="35"
       cx="60"
       rx="60"
       style="fill:none" />
  </g>
  <g
     id="g4224"
     style="font-size:11px;fill:#7acff5;stroke:#7acff5;font-family:sans-serif"
     transform="translate(600,292)">
    <ellipse
       sodipodi:ry="30"
       sodipodi:rx="40"
       sodipodi:cy="30"
       sodipodi:cx="40"
       d="M 80,30 C 80,46.568542 62.09139,60 40,60 17.90861,60 0,46.568542 0,30 0,13.431458 17.90861,0 40,0 62.09139,0 80,13.431458 80,30 z"
       clip-path="url(#clipPath8)"
       id="ellipse4226"
       cy="30"
       ry="30"
       cx="40"
       rx="40"
       style="stroke:none" />
  </g>
  <g
     id="g4228"
     style="font-size:11px;stroke-linecap:butt;stroke-linejoin:round;stroke-miterlimit:0;font-family:sans-serif"
     transform="translate(600,292)">
    <ellipse
       sodipodi:ry="30"
       sodipodi:rx="40"
       sodipodi:cy="30"
       sodipodi:cx="40"
       d="M 80,30 C 80,46.568542 62.09139,60 40,60 17.90861,60 0,46.568542 0,30 0,13.431458 17.90861,0 40,0 62.09139,0 80,13.431458 80,30 z"
       clip-path="url(#clipPath8)"
       id="ellipse4230"
       cy="30"
       ry="30"
       cx="40"
       rx="40"
       style="fill:none" />
  </g>
  <g
     id="g4232"
     style="font-size:11px;fill:#7acff5;stroke:#7acff5;font-family:sans-serif"
     transform="translate(400,342)">
    <ellipse
       sodipodi:ry="40"
       sodipodi:rx="80"
       sodipodi:cy="40"
       sodipodi:cx="80"
       d="M 160,40 C 160,62.09139 124.18278,80 80,80 35.81722,80 0,62.09139 0,40 0,17.90861 35.81722,0 80,0 c 44.18278,0 80,17.90861 80,40 z"
       clip-path="url(#clipPath9)"
       id="ellipse4234"
       cy="40"
       ry="40"
       cx="80"
       rx="80"
       style="stroke:none" />
  </g>
  <g
     id="g4236"
     style="font-size:11px;stroke-linecap:butt;stroke-linejoin:round;stroke-miterlimit:0;font-family:sans-serif"
     transform="translate(400,342)">
    <ellipse
       sodipodi:ry="40"
       sodipodi:rx="80"
       sodipodi:cy="40"
       sodipodi:cx="80"
       d="M 160,40 C 160,62.09139 124.18278,80 80,80 35.81722,80 0,62.09139 0,40 0,17.90861 35.81722,0 80,0 c 44.18278,0 80,17.90861 80,40 z"
       clip-path="url(#clipPath9)"
       id="ellipse4238"
       cy="40"
       ry="40"
       cx="80"
       rx="80"
       style="fill:none" />
  </g>
  <g
     id="g4240"
     style="font-size:11px;fill:#7acff5;stroke:#7acff5;font-family:sans-serif"
     transform="translate(200,232)">
    <ellipse
       sodipodi:ry="20"
       sodipodi:rx="40"
       sodipodi:cy="20"
       sodipodi:cx="40"
       d="M 80,20 C 80,31.045695 62.09139,40 40,40 17.90861,40 0,31.045695 0,20 0,8.954305 17.90861,0 40,0 62.09139,0 80,8.954305 80,20 z"
       clip-path="url(#clipPath10)"
       id="ellipse4242"
       cy="20"
       ry="20"
       cx="40"
       rx="40"
       style="stroke:none" />
  </g>
  <g
     id="g4244"
     style="font-size:11px;stroke-linecap:butt;stroke-linejoin:round;stroke-miterlimit:0;font-family:sans-serif"
     transform="translate(200,232)">
    <ellipse
       sodipodi:ry="20"
       sodipodi:rx="40"
       sodipodi:cy="20"
       sodipodi:cx="40"
       d="M 80,20 C 80,31.045695 62.09139,40 40,40 17.90861,40 0,31.045695 0,20 0,8.954305 17.90861,0 40,0 62.09139,0 80,8.954305 80,20 z"
       clip-path="url(#clipPath10)"
       id="ellipse4246"
       cy="20"
       ry="20"
       cx="40"
       rx="40"
       style="fill:none" />
  </g>
  <g
     id="g4248"
     style="font-size:11px;fill:#7acff5;stroke:#7acff5;font-family:sans-serif"
     transform="translate(0,152)">
    <ellipse
       sodipodi:ry="35"
       sodipodi:rx="85"
       sodipodi:cy="35"
       sodipodi:cx="85"
       d="M 170,35 C 170,54.329966 131.9442,70 85,70 38.055796,70 0,54.329966 0,35 0,15.670034 38.055796,0 85,0 c 46.9442,0 85,15.670034 85,35 z"
       clip-path="url(#clipPath11)"
       id="ellipse4250"
       cy="35"
       ry="35"
       cx="85"
       rx="85"
       style="stroke:none" />
  </g>
  <g
     id="g4252"
     style="font-size:11px;stroke-linecap:butt;stroke-linejoin:round;stroke-miterlimit:0;font-family:sans-serif"
     transform="translate(0,152)">
    <ellipse
       sodipodi:ry="35"
       sodipodi:rx="85"
       sodipodi:cy="35"
       sodipodi:cx="85"
       d="M 170,35 C 170,54.329966 131.9442,70 85,70 38.055796,70 0,54.329966 0,35 0,15.670034 38.055796,0 85,0 c 46.9442,0 85,15.670034 85,35 z"
       clip-path="url(#clipPath11)"
       id="ellipse4254"
       cy="35"
       ry="35"
       cx="85"
       rx="85"
       style="fill:none" />
  </g>
  <g
     id="g4256"
     style="font-size:11px;fill:#7acff5;stroke:#7acff5;font-family:sans-serif"
     transform="translate(270,302)">
    <ellipse
       sodipodi:ry="35"
       sodipodi:rx="60"
       sodipodi:cy="35"
       sodipodi:cx="60"
       d="M 120,35 C 120,54.329966 93.137085,70 60,70 26.862915,70 0,54.329966 0,35 0,15.670034 26.862915,0 60,0 c 33.137085,0 60,15.670034 60,35 z"
       clip-path="url(#clipPath7)"
       id="ellipse4258"
       cy="35"
       ry="35"
       cx="60"
       rx="60"
       style="stroke:none" />
  </g>
  <g
     id="g4260"
     style="font-size:11px;stroke-linecap:butt;stroke-linejoin:round;stroke-miterlimit:0;font-family:sans-serif"
     transform="translate(270,302)">
    <ellipse
       sodipodi:ry="35"
       sodipodi:rx="60"
       sodipodi:cy="35"
       sodipodi:cx="60"
       d="M 120,35 C 120,54.329966 93.137085,70 60,70 26.862915,70 0,54.329966 0,35 0,15.670034 26.862915,0 60,0 c 33.137085,0 60,15.670034 60,35 z"
       clip-path="url(#clipPath7)"
       id="ellipse4262"
       cy="35"
       ry="35"
       cx="60"
       rx="60"
       style="fill:none" />
  </g>
  <g
     id="g4264"
     style="font-size:11px;fill:#7acff5;stroke:#7acff5;font-family:sans-serif"
     transform="translate(30,292)">
    <ellipse
       sodipodi:ry="30"
       sodipodi:rx="70"
       sodipodi:cy="30"
       sodipodi:cx="70"
       d="M 140,30 C 140,46.568542 108.65993,60 70,60 31.340068,60 0,46.568542 0,30 0,13.431458 31.340068,0 70,0 c 38.65993,0 70,13.431458 70,30 z"
       clip-path="url(#clipPath3)"
       id="ellipse4266"
       cy="30"
       ry="30"
       cx="70"
       rx="70"
       style="stroke:none" />
  </g>
  <g
     id="g4268"
     style="font-size:11px;stroke-linecap:butt;stroke-linejoin:round;stroke-miterlimit:0;font-family:sans-serif"
     transform="translate(30,292)">
    <ellipse
       sodipodi:ry="30"
       sodipodi:rx="70"
       sodipodi:cy="30"
       sodipodi:cx="70"
       d="M 140,30 C 140,46.568542 108.65993,60 70,60 31.340068,60 0,46.568542 0,30 0,13.431458 31.340068,0 70,0 c 38.65993,0 70,13.431458 70,30 z"
       clip-path="url(#clipPath3)"
       id="ellipse4270"
       cy="30"
       ry="30"
       cx="70"
       rx="70"
       style="fill:none" />
  </g>
  <g
     id="g4272"
     style="font-size:11px;fill:#7acff5;stroke:#7acff5;font-family:sans-serif"
     transform="translate(130,372)">
    <ellipse
       sodipodi:ry="40"
       sodipodi:rx="85"
       sodipodi:cy="40"
       sodipodi:cx="85"
       d="M 170,40 C 170,62.09139 131.9442,80 85,80 38.055796,80 0,62.09139 0,40 0,17.90861 38.055796,0 85,0 c 46.9442,0 85,17.90861 85,40 z"
       clip-path="url(#clipPath12)"
       id="ellipse4274"
       cy="40"
       ry="40"
       cx="85"
       rx="85"
       style="stroke:none" />
  </g>
  <g
     id="g4276"
     style="font-size:11px;stroke-linecap:butt;stroke-linejoin:round;stroke-miterlimit:0;font-family:sans-serif"
     transform="translate(130,372)">
    <ellipse
       sodipodi:ry="40"
       sodipodi:rx="85"
       sodipodi:cy="40"
       sodipodi:cx="85"
       d="M 170,40 C 170,62.09139 131.9442,80 85,80 38.055796,80 0,62.09139 0,40 0,17.90861 38.055796,0 85,0 c 46.9442,0 85,17.90861 85,40 z"
       clip-path="url(#clipPath12)"
       id="ellipse4278"
       cy="40"
       ry="40"
       cx="85"
       rx="85"
       style="fill:none" />
  </g>
  <g
     id="g4280"
     transform="translate(130,372)"
     style="font-size:11px;font-family:sans-serif">
    <text
       clip-path="url(#clipPath13)"
       id="text4282"
       xml:space="preserve"
       style="stroke:none"
       y="30"
       x="40">Аудит действий</text>
    <text
       clip-path="url(#clipPath13)"
       id="text4284"
       xml:space="preserve"
       style="stroke:none"
       y="44"
       x="39">пользователей и</text>
    <text
       clip-path="url(#clipPath13)"
       id="text4286"
       xml:space="preserve"
       style="stroke:none"
       y="58"
       x="35">администраторов</text>
  </g>
  <g
     id="g4288"
     transform="translate(30,292)"
     style="font-size:11px;font-family:sans-serif">
    <text
       clip-path="url(#clipPath14)"
       id="text4290"
       xml:space="preserve"
       style="stroke:none"
       y="20"
       x="33">Организация</text>
    <text
       clip-path="url(#clipPath14)"
       id="text4292"
       xml:space="preserve"
       style="stroke:none"
       y="34"
       x="37">резервного</text>
    <text
       clip-path="url(#clipPath14)"
       id="text4294"
       xml:space="preserve"
       style="stroke:none"
       y="48"
       x="33">копирования</text>
  </g>
  <g
     id="g4296"
     transform="translate(270,302)"
     style="font-size:11px;font-family:sans-serif">
    <text
       clip-path="url(#clipPath15)"
       id="text4298"
       xml:space="preserve"
       style="stroke:none"
       y="25"
       x="26">Обновление</text>
    <text
       clip-path="url(#clipPath15)"
       id="text4300"
       xml:space="preserve"
       style="stroke:none"
       y="39"
       x="23">компонентов</text>
    <text
       clip-path="url(#clipPath15)"
       id="text4302"
       xml:space="preserve"
       style="stroke:none"
       y="53"
       x="37">системы</text>
  </g>
  <g
     id="g4304"
     transform="translate(0,152)"
     style="font-size:11px;font-family:sans-serif">
    <text
       clip-path="url(#clipPath16)"
       id="text4306"
       xml:space="preserve"
       style="stroke:none"
       y="25"
       x="10">Профилактические работы</text>
    <text
       clip-path="url(#clipPath16)"
       id="text4308"
       xml:space="preserve"
       style="stroke:none"
       y="39"
       x="40">по аппаратному</text>
    <text
       clip-path="url(#clipPath16)"
       id="text4310"
       xml:space="preserve"
       style="stroke:none"
       y="53"
       x="49">обеспечению</text>
  </g>
  <g
     id="g4312"
     transform="translate(200,232)"
     style="font-size:11px;font-family:sans-serif">
    <text
       clip-path="url(#clipPath17)"
       id="text4314"
       xml:space="preserve"
       style="stroke:none"
       y="24"
       x="8">Поддержка</text>
  </g>
  <g
     id="g4316"
     transform="translate(400,342)"
     style="font-size:11px;font-family:sans-serif">
    <text
       clip-path="url(#clipPath18)"
       id="text4318"
       xml:space="preserve"
       style="stroke:none"
       y="23"
       x="47">Назначение</text>
    <text
       clip-path="url(#clipPath18)"
       id="text4320"
       xml:space="preserve"
       style="stroke:none"
       y="37"
       x="15">администраторам прав</text>
    <text
       clip-path="url(#clipPath18)"
       id="text4322"
       xml:space="preserve"
       style="stroke:none"
       y="51"
       x="28">доступа на группы</text>
    <text
       clip-path="url(#clipPath18)"
       id="text4324"
       xml:space="preserve"
       style="stroke:none"
       y="65"
       x="39">пользователей</text>
  </g>
  <g
     id="g4326"
     transform="translate(600,292)"
     style="font-size:11px;font-family:sans-serif">
    <text
       clip-path="url(#clipPath19)"
       id="text4328"
       xml:space="preserve"
       style="stroke:none"
       y="20"
       x="12">Создание</text>
    <text
       clip-path="url(#clipPath19)"
       id="text4330"
       xml:space="preserve"
       style="stroke:none"
       y="34"
       x="15">групп по</text>
    <text
       clip-path="url(#clipPath19)"
       id="text4332"
       xml:space="preserve"
       style="stroke:none"
       y="48"
       x="16">отделам</text>
  </g>
  <g
     id="g4334"
     transform="translate(570,142)"
     style="font-size:11px;font-family:sans-serif">
    <text
       clip-path="url(#clipPath15)"
       id="text4336"
       xml:space="preserve"
       style="stroke:none"
       y="25"
       x="8">Создание учётных</text>
    <text
       clip-path="url(#clipPath15)"
       id="text4338"
       xml:space="preserve"
       style="stroke:none"
       y="39"
       x="38">записей</text>
    <text
       clip-path="url(#clipPath15)"
       id="text4340"
       xml:space="preserve"
       style="stroke:none"
       y="53"
       x="11">администраторов</text>
  </g>
  <g
     id="g4342"
     transform="translate(490,2)"
     style="font-size:11px;font-family:sans-serif">
    <text
       clip-path="url(#clipPath20)"
       id="text4344"
       xml:space="preserve"
       style="stroke:none"
       y="27"
       x="25">Настройка</text>
    <text
       clip-path="url(#clipPath20)"
       id="text4346"
       xml:space="preserve"
       style="stroke:none"
       y="41"
       x="8">серверной части</text>
  </g>
  <g
     id="g4348"
     transform="translate(440,232)"
     style="font-size:11px;font-family:sans-serif">
    <text
       clip-path="url(#clipPath20)"
       id="text4350"
       xml:space="preserve"
       style="stroke:none"
       y="20"
       x="29">Внесение</text>
    <text
       clip-path="url(#clipPath20)"
       id="text4352"
       xml:space="preserve"
       style="stroke:none"
       y="34"
       x="25">первичных</text>
    <text
       clip-path="url(#clipPath20)"
       id="text4354"
       xml:space="preserve"
       style="stroke:none"
       y="48"
       x="12">данных в СУБД</text>
  </g>
  <g
     id="g4356"
     transform="translate(210,2)"
     style="font-size:11px;font-family:sans-serif">
    <text
       clip-path="url(#clipPath21)"
       id="text4358"
       xml:space="preserve"
       style="stroke:none"
       y="24"
       x="7">Развёртывание СУБД</text>
  </g>
  <g
     id="g4360"
     transform="translate(90,12)"
     style="font-size:11px;font-family:sans-serif">
    <text
       clip-path="url(#clipPath22)"
       id="text4362"
       xml:space="preserve"
       style="stroke:none"
       y="24"
       x="6">Настройка ОС</text>
  </g>
  <g
     id="g4364"
     transform="translate(330,22)"
     style="font-size:11px;font-family:sans-serif">
    <text
       clip-path="url(#clipPath14)"
       id="text4366"
       xml:space="preserve"
       style="stroke:none"
       y="20"
       x="40">Настройка</text>
    <text
       clip-path="url(#clipPath14)"
       id="text4368"
       xml:space="preserve"
       style="stroke:none"
       y="34"
       x="34">аппаратного</text>
    <text
       clip-path="url(#clipPath14)"
       id="text4370"
       xml:space="preserve"
       style="stroke:none"
       y="48"
       x="35">обеспечения</text>
  </g>
  <g
     id="g4372"
     transform="translate(270,162)"
     style="font-size:11px;font-family:sans-serif">
    <text
       clip-path="url(#clipPath23)"
       id="text4374"
       xml:space="preserve"
       style="stroke:none"
       y="22"
       x="10">Развёртывание сервера</text>
    <text
       clip-path="url(#clipPath23)"
       id="text4376"
       xml:space="preserve"
       style="stroke:none"
       y="36"
       x="41">приложений</text>
  </g>
  <g
     id="g4378"
     transform="translate(318,272)"
     style="font-size:11px;font-family:sans-serif">
    <text
       clip-path="url(#clipPath24)"
       id="text4380"
       xml:space="preserve"
       style="stroke:none"
       y="11"
       x="9">SA</text>
  </g>
  <g
     id="g4382"
     style="font-size:11px;stroke-linecap:butt;stroke-linejoin:round;stroke-dasharray:4;font-family:sans-serif"
     transform="translate(274,26)">
    <line
       clip-path="url(#clipPath26)"
       id="line4384"
       y2="56"
       style="fill:none"
       y1="137"
       x2="56"
       x1="56" />
    <line
       clip-path="url(#clipPath26)"
       id="line4386"
       y2="68"
       style="fill:none;stroke-dasharray:none"
       y1="56"
       x2="50"
       x1="56" />
    <line
       clip-path="url(#clipPath26)"
       id="line4388"
       y2="68"
       style="fill:none;stroke-dasharray:none"
       y1="56"
       x2="62"
       x1="56" />
  </g>
  <g
     id="g4390"
     style="font-size:11px;stroke-linecap:butt;stroke-linejoin:round;stroke-dasharray:4;font-family:sans-serif"
     transform="translate(119,-10)">
    <line
       clip-path="url(#clipPath27)"
       id="line4392"
       y2="56"
       style="fill:none"
       y1="184"
       x2="56"
       x1="162" />
    <line
       clip-path="url(#clipPath27)"
       id="line4394"
       y2="68"
       style="fill:none;stroke-dasharray:none"
       y1="56"
       x2="58"
       x1="56" />
    <line
       clip-path="url(#clipPath27)"
       id="line4396"
       y2="61"
       style="fill:none;stroke-dasharray:none"
       y1="56"
       x2="68"
       x1="56" />
  </g>
  <g
     id="g4398"
     style="font-size:11px;stroke-linecap:butt;stroke-linejoin:round;stroke-dasharray:4;font-family:sans-serif"
     transform="translate(214,-14)">
    <line
       clip-path="url(#clipPath28)"
       id="line4400"
       y2="56"
       style="fill:none"
       y1="176"
       x2="56"
       x1="56" />
    <line
       clip-path="url(#clipPath28)"
       id="line4402"
       y2="68"
       style="fill:none;stroke-dasharray:none"
       y1="56"
       x2="50"
       x1="56" />
    <line
       clip-path="url(#clipPath28)"
       id="line4404"
       y2="68"
       style="fill:none;stroke-dasharray:none"
       y1="56"
       x2="62"
       x1="56" />
  </g>
  <g
     id="g4406"
     style="font-size:11px;stroke-linecap:butt;stroke-linejoin:round;stroke-dasharray:4;font-family:sans-serif"
     transform="translate(353,145)">
    <line
       clip-path="url(#clipPath29)"
       id="line4408"
       y2="98"
       style="fill:none"
       y1="56"
       x2="98"
       x1="56" />
    <line
       clip-path="url(#clipPath29)"
       id="line4410"
       y2="85"
       style="fill:none;stroke-dasharray:none"
       y1="98"
       x2="94"
       x1="98" />
    <line
       clip-path="url(#clipPath29)"
       id="line4412"
       y2="94"
       style="fill:none;stroke-dasharray:none"
       y1="98"
       x2="85"
       x1="98" />
  </g>
  <g
     id="g4414"
     style="font-size:11px;stroke-linecap:butt;stroke-linejoin:round;stroke-dasharray:4;font-family:sans-serif"
     transform="translate(354,-7)">
    <line
       clip-path="url(#clipPath30)"
       id="line4416"
       y2="56"
       style="fill:none"
       y1="182"
       x2="146"
       x1="56" />
    <line
       clip-path="url(#clipPath30)"
       id="line4418"
       y2="62"
       style="fill:none;stroke-dasharray:none"
       y1="56"
       x2="134"
       x1="146" />
    <line
       clip-path="url(#clipPath30)"
       id="line4420"
       y2="69"
       style="fill:none;stroke-dasharray:none"
       y1="56"
       x2="144"
       x1="146" />
  </g>
  <g
     id="g4422"
     style="font-size:11px;stroke-linecap:butt;stroke-linejoin:round;stroke-dasharray:4;font-family:sans-serif"
     transform="translate(483,143)">
    <line
       clip-path="url(#clipPath31)"
       id="line4424"
       y2="56"
       style="fill:none"
       y1="100"
       x2="100"
       x1="56" />
    <line
       clip-path="url(#clipPath31)"
       id="line4426"
       y2="59"
       style="fill:none;stroke-dasharray:none"
       y1="56"
       x2="87"
       x1="100" />
    <line
       clip-path="url(#clipPath31)"
       id="line4428"
       y2="68"
       style="fill:none;stroke-dasharray:none"
       y1="56"
       x2="96"
       x1="100" />
  </g>
  <g
     id="g4430"
     style="font-size:11px;stroke-linecap:butt;stroke-linejoin:round;stroke-dasharray:4;font-family:sans-serif"
     transform="translate(461,235)">
    <line
       clip-path="url(#clipPath32)"
       id="line4432"
       y2="59"
       style="fill:none"
       y1="56"
       x2="169"
       x1="56" />
    <line
       clip-path="url(#clipPath32)"
       id="line4434"
       y2="53"
       style="fill:none;stroke-dasharray:none"
       y1="59"
       x2="157"
       x1="169" />
    <line
       clip-path="url(#clipPath32)"
       id="line4436"
       y2="65"
       style="fill:none;stroke-dasharray:none"
       y1="59"
       x2="157"
       x1="169" />
  </g>
  <g
     id="g4438"
     style="font-size:11px;stroke-linecap:butt;stroke-linejoin:round;stroke-dasharray:4;font-family:sans-serif"
     transform="translate(424,235)">
    <line
       clip-path="url(#clipPath33)"
       id="line4440"
       y2="108"
       style="fill:none"
       y1="56"
       x2="56"
       x1="56" />
    <line
       clip-path="url(#clipPath33)"
       id="line4442"
       y2="96"
       style="fill:none;stroke-dasharray:none"
       y1="108"
       x2="62"
       x1="56" />
    <line
       clip-path="url(#clipPath33)"
       id="line4444"
       y2="96"
       style="fill:none;stroke-dasharray:none"
       y1="108"
       x2="50"
       x1="56" />
  </g>
  <g
     id="g4446"
     style="font-size:11px;stroke-linecap:butt;stroke-linejoin:round;font-family:sans-serif"
     transform="translate(221,206)">
    <line
       clip-path="url(#clipPath34)"
       id="line4448"
       y2="56"
       style="fill:none"
       y1="56"
       x2="56"
       x1="98" />
  </g>
  <g
     id="g4450"
     style="font-size:11px;stroke-linecap:butt;stroke-linejoin:round;stroke-dasharray:4;font-family:sans-serif"
     transform="translate(90,156)">
    <line
       clip-path="url(#clipPath35)"
       id="line4452"
       y2="56"
       style="fill:none"
       y1="81"
       x2="56"
       x1="123" />
    <line
       clip-path="url(#clipPath35)"
       id="line4454"
       y2="65"
       style="fill:none;stroke-dasharray:none"
       y1="56"
       x2="65"
       x1="56" />
    <line
       clip-path="url(#clipPath35)"
       id="line4456"
       y2="54"
       style="fill:none;stroke-dasharray:none"
       y1="56"
       x2="69"
       x1="56" />
  </g>
  <g
     id="g4458"
     style="font-size:11px;stroke-linecap:butt;stroke-linejoin:round;stroke-dasharray:4;font-family:sans-serif"
     transform="translate(214,212)">
    <line
       clip-path="url(#clipPath36)"
       id="line4460"
       y2="118"
       style="fill:none"
       y1="56"
       x2="58"
       x1="56" />
    <line
       clip-path="url(#clipPath36)"
       id="line4462"
       y2="106"
       style="fill:none;stroke-dasharray:none"
       y1="118"
       x2="64"
       x1="58" />
    <line
       clip-path="url(#clipPath36)"
       id="line4464"
       y2="106"
       style="fill:none;stroke-dasharray:none"
       y1="118"
       x2="52"
       x1="58" />
  </g>
  <g
     id="g4466"
     style="font-size:11px;stroke-linecap:butt;stroke-linejoin:round;stroke-dasharray:4;font-family:sans-serif"
     transform="translate(99,210)">
    <line
       clip-path="url(#clipPath37)"
       id="line4468"
       y2="93"
       style="fill:none"
       y1="56"
       x2="56"
       x1="111" />
    <line
       clip-path="url(#clipPath37)"
       id="line4470"
       y2="92"
       style="fill:none;stroke-dasharray:none"
       y1="93"
       x2="68"
       x1="56" />
    <line
       clip-path="url(#clipPath37)"
       id="line4472"
       y2="81"
       style="fill:none;stroke-dasharray:none"
       y1="93"
       x2="62"
       x1="56" />
  </g>
  <g
     id="g4474"
     style="font-size:11px;stroke-linecap:butt;stroke-linejoin:round;stroke-dasharray:4;font-family:sans-serif"
     transform="translate(164,214)">
    <line
       clip-path="url(#clipPath38)"
       id="line4476"
       y2="159"
       style="fill:none"
       y1="56"
       x2="56"
       x1="56" />
    <line
       clip-path="url(#clipPath38)"
       id="line4478"
       y2="147"
       style="fill:none;stroke-dasharray:none"
       y1="159"
       x2="62"
       x1="56" />
    <line
       clip-path="url(#clipPath38)"
       id="line4480"
       y2="147"
       style="fill:none;stroke-dasharray:none"
       y1="159"
       x2="50"
       x1="56" />
  </g>
  <g
     id="g4482"
     transform="translate(136,305)"
     style="font-size:11px;font-family:sans-serif">
    <text
       clip-path="url(#clipPath39)"
       id="text4484"
       xml:space="preserve"
       style="stroke:none"
       y="11"
       x="9">&lt;&lt;Include&gt;&gt;</text>
  </g>
  <g
     id="g4486"
     transform="translate(138,299)"
     style="font-size:11px;font-family:sans-serif">
    <text
       clip-path="url(#clipPath39)"
       id="text4488"
       xml:space="preserve"
       style="stroke:none"
       y="11"
       x="9">&lt;&lt;Include&gt;&gt;</text>
  </g>
  <g
     id="g4490"
     transform="translate(236,295)"
     style="font-size:11px;font-family:sans-serif">
    <text
       clip-path="url(#clipPath40)"
       id="text4492"
       xml:space="preserve"
       style="stroke:none"
       y="12"
       x="10">&lt;&lt;Include&gt;&gt;</text>
  </g>
  <g
     id="g4494"
     transform="translate(100,232)"
     style="font-size:11px;font-family:sans-serif">
    <text
       clip-path="url(#clipPath39)"
       id="text4496"
       xml:space="preserve"
       style="stroke:none"
       y="11"
       x="9">&lt;&lt;Include&gt;&gt;</text>
  </g>
  <g
     id="g4498"
     transform="translate(444,295)"
     style="font-size:11px;font-family:sans-serif">
    <text
       clip-path="url(#clipPath41)"
       id="text4500"
       xml:space="preserve"
       style="stroke:none"
       y="11"
       x="8">&lt;&lt;Include&gt;&gt;</text>
  </g>
  <g
     id="g4502"
     transform="translate(569,252)"
     style="font-size:11px;font-family:sans-serif">
    <text
       clip-path="url(#clipPath41)"
       id="text4504"
       xml:space="preserve"
       style="stroke:none"
       y="11"
       x="8">&lt;&lt;Include&gt;&gt;</text>
  </g>
  <g
     id="g4506"
     transform="translate(507,199)"
     style="font-size:11px;font-family:sans-serif">
    <text
       clip-path="url(#clipPath41)"
       id="text4508"
       xml:space="preserve"
       style="stroke:none"
       y="11"
       x="8">&lt;&lt;Include&gt;&gt;</text>
  </g>
  <g
     id="g4510"
     transform="translate(507,118)"
     style="font-size:11px;font-family:sans-serif">
    <text
       clip-path="url(#clipPath41)"
       id="text4512"
       xml:space="preserve"
       style="stroke:none"
       y="11"
       x="8">&lt;&lt;Include&gt;&gt;</text>
  </g>
  <g
     id="g4514"
     transform="translate(364,239)"
     style="font-size:11px;font-family:sans-serif">
    <text
       clip-path="url(#clipPath41)"
       id="text4516"
       xml:space="preserve"
       style="stroke:none"
       y="11"
       x="8">&lt;&lt;Include&gt;&gt;</text>
  </g>
  <g
     id="g4518"
     transform="translate(251,102)"
     style="font-size:11px;font-family:sans-serif">
    <text
       clip-path="url(#clipPath41)"
       id="text4520"
       xml:space="preserve"
       style="stroke:none"
       y="11"
       x="8">&lt;&lt;Include&gt;&gt;</text>
  </g>
  <g
     id="g4522"
     transform="translate(153,102)"
     style="font-size:11px;font-family:sans-serif">
    <text
       clip-path="url(#clipPath41)"
       id="text4524"
       xml:space="preserve"
       style="stroke:none"
       y="11"
       x="8">&lt;&lt;Include&gt;&gt;</text>
  </g>
  <g
     id="g4526"
     transform="translate(303,142)"
     style="font-size:11px;font-family:sans-serif">
    <text
       clip-path="url(#clipPath41)"
       id="text4528"
       xml:space="preserve"
       style="stroke:none"
       y="11"
       x="8">&lt;&lt;Include&gt;&gt;</text>
  </g>
</svg>
