<?xml version="1.0" encoding="UTF-8" standalone="no"?>
<svg
   xmlns:dc="http://purl.org/dc/elements/1.1/"
   xmlns:cc="http://creativecommons.org/ns#"
   xmlns:rdf="http://www.w3.org/1999/02/22-rdf-syntax-ns#"
   xmlns:svg="http://www.w3.org/2000/svg"
   xmlns="http://www.w3.org/2000/svg"
   xmlns:sodipodi="http://sodipodi.sourceforge.net/DTD/sodipodi-0.dtd"
   xmlns:inkscape="http://www.inkscape.org/namespaces/inkscape"
   style="fill-opacity:1; color-rendering:auto; color-interpolation:auto; stroke:black; text-rendering:auto; stroke-linecap:square; stroke-miterlimit:10; stroke-opacity:1; shape-rendering:auto; fill:black; stroke-dasharray:none; font-weight:normal; stroke-width:1; font-family:'Dialog'; font-style:normal; stroke-linejoin:miter; font-size:12; stroke-dashoffset:0; image-rendering:auto;"
   width="864"
   height="356"
   id="svg4626"
   version="1.1"
   inkscape:version="0.48.0 r9654"
   sodipodi:docname="User usecase.svg">
  <metadata
     id="metadata5016">
    <rdf:RDF>
      <cc:Work
         rdf:about="">
        <dc:format>image/svg+xml</dc:format>
        <dc:type
           rdf:resource="http://purl.org/dc/dcmitype/StillImage" />
      </cc:Work>
    </rdf:RDF>
  </metadata>
  <sodipodi:namedview
     pagecolor="#ffffff"
     bordercolor="#666666"
     borderopacity="1"
     objecttolerance="10"
     gridtolerance="10"
     guidetolerance="10"
     inkscape:pageopacity="0"
     inkscape:pageshadow="2"
     inkscape:window-width="1440"
     inkscape:window-height="849"
     id="namedview5014"
     showgrid="false"
     inkscape:zoom="0.59722222"
     inkscape:cx="432"
     inkscape:cy="178"
     inkscape:window-x="-2"
     inkscape:window-y="26"
     inkscape:window-maximized="1"
     inkscape:current-layer="svg4626" />
  <!--Generated by the Batik Graphics2D SVG Generator-->
  <defs
     id="genericDefs">
    <defs
       id="defs1">
      <clipPath
         id="clipPath1"
         clipPathUnits="userSpaceOnUse">
        <path
           id="path4633"
           d="M-3 -3 L37 -3 L37 67 L-3 67 L-3 -3 Z" />
      </clipPath>
      <clipPath
         id="clipPath2"
         clipPathUnits="userSpaceOnUse">
        <path
           id="path4636"
           d="M-3 -3 L127 -3 L127 67 L-3 67 L-3 -3 Z" />
      </clipPath>
      <clipPath
         id="clipPath3"
         clipPathUnits="userSpaceOnUse">
        <path
           id="path4639"
           d="M-3 -3 L137 -3 L137 87 L-3 87 L-3 -3 Z" />
      </clipPath>
      <clipPath
         id="clipPath4"
         clipPathUnits="userSpaceOnUse">
        <path
           id="path4642"
           d="M-3 -3 L157 -3 L157 67 L-3 67 L-3 -3 Z" />
      </clipPath>
      <clipPath
         id="clipPath5"
         clipPathUnits="userSpaceOnUse">
        <path
           id="path4645"
           d="M-3 -3 L157 -3 L157 47 L-3 47 L-3 -3 Z" />
      </clipPath>
      <clipPath
         id="clipPath6"
         clipPathUnits="userSpaceOnUse">
        <path
           id="path4648"
           d="M-3 -3 L167 -3 L167 77 L-3 77 L-3 -3 Z" />
      </clipPath>
      <clipPath
         id="clipPath7"
         clipPathUnits="userSpaceOnUse">
        <path
           id="path4651"
           d="M-3 -3 L137 -3 L137 47 L-3 47 L-3 -3 Z" />
      </clipPath>
      <clipPath
         id="clipPath8"
         clipPathUnits="userSpaceOnUse">
        <path
           id="path4654"
           d="M-3 -3 L147 -3 L147 67 L-3 67 L-3 -3 Z" />
      </clipPath>
      <clipPath
         id="clipPath9"
         clipPathUnits="userSpaceOnUse">
        <path
           id="path4657"
           d="M-3 -3 L157 -3 L157 57 L-3 57 L-3 -3 Z" />
      </clipPath>
      <clipPath
         id="clipPath10"
         clipPathUnits="userSpaceOnUse">
        <path
           id="path4660"
           d="M-150 -50 L300 -50 L300 100 L-150 100 L-150 -50 Z" />
      </clipPath>
      <clipPath
         id="clipPath11"
         clipPathUnits="userSpaceOnUse">
        <path
           id="path4663"
           d="M-140 -60 L280 -60 L280 120 L-140 120 L-140 -60 Z" />
      </clipPath>
      <clipPath
         id="clipPath12"
         clipPathUnits="userSpaceOnUse">
        <path
           id="path4666"
           d="M-130 -40 L260 -40 L260 80 L-130 80 L-130 -40 Z" />
      </clipPath>
      <clipPath
         id="clipPath13"
         clipPathUnits="userSpaceOnUse">
        <path
           id="path4669"
           d="M-160 -70 L320 -70 L320 140 L-160 140 L-160 -70 Z" />
      </clipPath>
      <clipPath
         id="clipPath14"
         clipPathUnits="userSpaceOnUse">
        <path
           id="path4672"
           d="M-150 -40 L300 -40 L300 80 L-150 80 L-150 -40 Z" />
      </clipPath>
      <clipPath
         id="clipPath15"
         clipPathUnits="userSpaceOnUse">
        <path
           id="path4675"
           d="M-150 -60 L300 -60 L300 120 L-150 120 L-150 -60 Z" />
      </clipPath>
      <clipPath
         id="clipPath16"
         clipPathUnits="userSpaceOnUse">
        <path
           id="path4678"
           d="M-130 -80 L260 -80 L260 160 L-130 160 L-130 -80 Z" />
      </clipPath>
      <clipPath
         id="clipPath17"
         clipPathUnits="userSpaceOnUse">
        <path
           id="path4681"
           d="M-120 -60 L240 -60 L240 120 L-120 120 L-120 -60 Z" />
      </clipPath>
      <clipPath
         id="clipPath18"
         clipPathUnits="userSpaceOnUse">
        <path
           id="path4684"
           d="M-94 -14 L188 -14 L188 28 L-94 28 L-94 -14 Z" />
      </clipPath>
      <clipPath
         id="clipPath19"
         clipPathUnits="userSpaceOnUse">
        <path
           id="path4687"
           d="M0 0 L104 0 L104 213 L0 213 L0 0 Z" />
      </clipPath>
      <clipPath
         id="clipPath20"
         clipPathUnits="userSpaceOnUse">
        <path
           id="path4690"
           d="M0 0 L166 0 L166 146 L0 146 L0 0 Z" />
      </clipPath>
      <clipPath
         id="clipPath21"
         clipPathUnits="userSpaceOnUse">
        <path
           id="path4693"
           d="M0 0 L183 0 L183 104 L0 104 L0 0 Z" />
      </clipPath>
      <clipPath
         id="clipPath22"
         clipPathUnits="userSpaceOnUse">
        <path
           id="path4696"
           d="M0 0 L104 0 L104 170 L0 170 L0 0 Z" />
      </clipPath>
      <clipPath
         id="clipPath23"
         clipPathUnits="userSpaceOnUse">
        <path
           id="path4699"
           d="M0 0 L222 0 L222 127 L0 127 L0 0 Z" />
      </clipPath>
      <clipPath
         id="clipPath24"
         clipPathUnits="userSpaceOnUse">
        <path
           id="path4702"
           d="M0 0 L202 0 L202 104 L0 104 L0 0 Z" />
      </clipPath>
      <clipPath
         id="clipPath25"
         clipPathUnits="userSpaceOnUse">
        <path
           id="path4705"
           d="M0 0 L145 0 L145 145 L0 145 L0 0 Z" />
      </clipPath>
      <clipPath
         id="clipPath26"
         clipPathUnits="userSpaceOnUse">
        <path
           id="path4708"
           d="M0 0 L104 0 L104 144 L0 144 L0 0 Z" />
      </clipPath>
      <clipPath
         id="clipPath27"
         clipPathUnits="userSpaceOnUse">
        <path
           id="path4711"
           d="M-95 -14 L190 -14 L190 28 L-95 28 L-95 -14 Z" />
      </clipPath>
      <clipPath
         id="clipPath28"
         clipPathUnits="userSpaceOnUse">
        <path
           id="path4714"
           d="M-128 -14 L256 -14 L256 28 L-128 28 L-128 -14 Z" />
      </clipPath>
    </defs>
  </defs>
  <g
     id="g4716"
     style="fill:#ffffff;stroke:#ffffff">
    <rect
       id="rect4718"
       height="356"
       style="stroke:none"
       width="864"
       y="0"
       x="0" />
  </g>
  <g
     id="g4720"
     style="font-size:11px;fill:#7acff5;stroke:#7acff5;font-family:sans-serif"
     transform="translate(450,172)">
    <circle
       sodipodi:ry="7.5"
       sodipodi:rx="7.5"
       sodipodi:cy="7.5"
       sodipodi:cx="14.5"
       d="M 22,7.5 C 22,11.642136 18.642136,15 14.5,15 10.357864,15 7,11.642136 7,7.5 7,3.3578644 10.357864,0 14.5,0 18.642136,0 22,3.3578644 22,7.5 z"
       clip-path="url(#clipPath1)"
       id="circle4722"
       cy="7.5"
       cx="14.5"
       r="7.5"
       style="stroke:none" />
  </g>
  <g
     id="g4724"
     style="font-size:11px;stroke-linecap:butt;stroke-linejoin:round;stroke-miterlimit:0;font-family:sans-serif"
     transform="translate(450,172)">
    <circle
       sodipodi:ry="7.5"
       sodipodi:rx="7.5"
       sodipodi:cy="7.5"
       sodipodi:cx="14.5"
       d="M 22,7.5 C 22,11.642136 18.642136,15 14.5,15 10.357864,15 7,11.642136 7,7.5 7,3.3578644 10.357864,0 14.5,0 18.642136,0 22,3.3578644 22,7.5 z"
       clip-path="url(#clipPath1)"
       id="circle4726"
       cy="7.5"
       cx="14.5"
       r="7.5"
       style="fill:none" />
    <line
       clip-path="url(#clipPath1)"
       id="line4728"
       y2="40"
       style="fill:none"
       y1="15"
       x2="15"
       x1="15" />
    <line
       clip-path="url(#clipPath1)"
       id="line4730"
       y2="24"
       style="fill:none"
       y1="24"
       x2="30"
       x1="0" />
    <line
       clip-path="url(#clipPath1)"
       id="line4732"
       y2="60"
       style="fill:none"
       y1="40"
       x2="0"
       x1="15" />
    <line
       clip-path="url(#clipPath1)"
       id="line4734"
       y2="60"
       style="fill:none"
       y1="40"
       x2="30"
       x1="15" />
  </g>
  <g
     id="g4736"
     style="font-size:11px;fill:#7acff5;stroke:#7acff5;font-family:sans-serif"
     transform="translate(380,2)">
    <ellipse
       sodipodi:ry="30"
       sodipodi:rx="60"
       sodipodi:cy="30"
       sodipodi:cx="60"
       d="M 120,30 C 120,46.568542 93.137085,60 60,60 26.862915,60 0,46.568542 0,30 0,13.431458 26.862915,0 60,0 c 33.137085,0 60,13.431458 60,30 z"
       clip-path="url(#clipPath2)"
       id="ellipse4738"
       cy="30"
       ry="30"
       cx="60"
       rx="60"
       style="stroke:none" />
  </g>
  <g
     id="g4740"
     style="font-size:11px;stroke-linecap:butt;stroke-linejoin:round;stroke-miterlimit:0;font-family:sans-serif"
     transform="translate(380,2)">
    <ellipse
       sodipodi:ry="30"
       sodipodi:rx="60"
       sodipodi:cy="30"
       sodipodi:cx="60"
       d="M 120,30 C 120,46.568542 93.137085,60 60,60 26.862915,60 0,46.568542 0,30 0,13.431458 26.862915,0 60,0 c 33.137085,0 60,13.431458 60,30 z"
       clip-path="url(#clipPath2)"
       id="ellipse4742"
       cy="30"
       ry="30"
       cx="60"
       rx="60"
       style="fill:none" />
  </g>
  <g
     id="g4744"
     style="font-size:11px;fill:#7acff5;stroke:#7acff5;font-family:sans-serif"
     transform="translate(220,82)">
    <ellipse
       sodipodi:ry="40"
       sodipodi:rx="65"
       sodipodi:cy="40"
       sodipodi:cx="65"
       d="M 130,40 C 130,62.09139 100.89851,80 65,80 29.101491,80 0,62.09139 0,40 0,17.90861 29.101491,0 65,0 c 35.89851,0 65,17.90861 65,40 z"
       clip-path="url(#clipPath3)"
       id="ellipse4746"
       cy="40"
       ry="40"
       cx="65"
       rx="65"
       style="stroke:none" />
  </g>
  <g
     id="g4748"
     style="font-size:11px;stroke-linecap:butt;stroke-linejoin:round;stroke-miterlimit:0;font-family:sans-serif"
     transform="translate(220,82)">
    <ellipse
       sodipodi:ry="40"
       sodipodi:rx="65"
       sodipodi:cy="40"
       sodipodi:cx="65"
       d="M 130,40 C 130,62.09139 100.89851,80 65,80 29.101491,80 0,62.09139 0,40 0,17.90861 29.101491,0 65,0 c 35.89851,0 65,17.90861 65,40 z"
       clip-path="url(#clipPath3)"
       id="ellipse4750"
       cy="40"
       ry="40"
       cx="65"
       rx="65"
       style="fill:none" />
  </g>
  <g
     id="g4752"
     style="font-size:11px;fill:#7acff5;stroke:#7acff5;font-family:sans-serif"
     transform="translate(220,192)">
    <ellipse
       sodipodi:ry="30"
       sodipodi:rx="75"
       sodipodi:cy="30"
       sodipodi:cx="75"
       d="M 150,30 C 150,46.568542 116.42136,60 75,60 33.578644,60 0,46.568542 0,30 0,13.431458 33.578644,0 75,0 c 41.42136,0 75,13.431458 75,30 z"
       clip-path="url(#clipPath4)"
       id="ellipse4754"
       cy="30"
       ry="30"
       cx="75"
       rx="75"
       style="stroke:none" />
  </g>
  <g
     id="g4756"
     style="font-size:11px;stroke-linecap:butt;stroke-linejoin:round;stroke-miterlimit:0;font-family:sans-serif"
     transform="translate(220,192)">
    <ellipse
       sodipodi:ry="30"
       sodipodi:rx="75"
       sodipodi:cy="30"
       sodipodi:cx="75"
       d="M 150,30 C 150,46.568542 116.42136,60 75,60 33.578644,60 0,46.568542 0,30 0,13.431458 33.578644,0 75,0 c 41.42136,0 75,13.431458 75,30 z"
       clip-path="url(#clipPath4)"
       id="ellipse4758"
       cy="30"
       ry="30"
       cx="75"
       rx="75"
       style="fill:none" />
  </g>
  <g
     id="g4760"
     style="font-size:11px;fill:#7acff5;stroke:#7acff5;font-family:sans-serif"
     transform="translate(250,312)">
    <ellipse
       sodipodi:ry="20"
       sodipodi:rx="75"
       sodipodi:cy="20"
       sodipodi:cx="75"
       d="M 150,20 C 150,31.045695 116.42136,40 75,40 33.578644,40 0,31.045695 0,20 0,8.954305 33.578644,0 75,0 c 41.42136,0 75,8.954305 75,20 z"
       clip-path="url(#clipPath5)"
       id="ellipse4762"
       cy="20"
       ry="20"
       cx="75"
       rx="75"
       style="stroke:none" />
  </g>
  <g
     id="g4764"
     style="font-size:11px;stroke-linecap:butt;stroke-linejoin:round;stroke-miterlimit:0;font-family:sans-serif"
     transform="translate(250,312)">
    <ellipse
       sodipodi:ry="20"
       sodipodi:rx="75"
       sodipodi:cy="20"
       sodipodi:cx="75"
       d="M 150,20 C 150,31.045695 116.42136,40 75,40 33.578644,40 0,31.045695 0,20 0,8.954305 33.578644,0 75,0 c 41.42136,0 75,8.954305 75,20 z"
       clip-path="url(#clipPath5)"
       id="ellipse4766"
       cy="20"
       ry="20"
       cx="75"
       rx="75"
       style="fill:none" />
  </g>
  <g
     id="g4768"
     style="font-size:11px;fill:#7acff5;stroke:#7acff5;font-family:sans-serif"
     transform="translate(0,262)">
    <ellipse
       sodipodi:ry="35"
       sodipodi:rx="80"
       sodipodi:cy="35"
       sodipodi:cx="80"
       d="M 160,35 C 160,54.329966 124.18278,70 80,70 35.81722,70 0,54.329966 0,35 0,15.670034 35.81722,0 80,0 c 44.18278,0 80,15.670034 80,35 z"
       clip-path="url(#clipPath6)"
       id="ellipse4770"
       cy="35"
       ry="35"
       cx="80"
       rx="80"
       style="stroke:none" />
  </g>
  <g
     id="g4772"
     style="font-size:11px;stroke-linecap:butt;stroke-linejoin:round;stroke-miterlimit:0;font-family:sans-serif"
     transform="translate(0,262)">
    <ellipse
       sodipodi:ry="35"
       sodipodi:rx="80"
       sodipodi:cy="35"
       sodipodi:cx="80"
       d="M 160,35 C 160,54.329966 124.18278,70 80,70 35.81722,70 0,54.329966 0,35 0,15.670034 35.81722,0 80,0 c 44.18278,0 80,15.670034 80,35 z"
       clip-path="url(#clipPath6)"
       id="ellipse4774"
       cy="35"
       ry="35"
       cx="80"
       rx="80"
       style="fill:none" />
  </g>
  <g
     id="g4776"
     style="font-size:11px;fill:#7acff5;stroke:#7acff5;font-family:sans-serif"
     transform="translate(570,182)">
    <ellipse
       sodipodi:ry="20"
       sodipodi:rx="65"
       sodipodi:cy="20"
       sodipodi:cx="65"
       d="M 130,20 C 130,31.045695 100.89851,40 65,40 29.101491,40 0,31.045695 0,20 0,8.954305 29.101491,0 65,0 c 35.89851,0 65,8.954305 65,20 z"
       clip-path="url(#clipPath7)"
       id="ellipse4778"
       cy="20"
       ry="20"
       cx="65"
       rx="65"
       style="stroke:none" />
  </g>
  <g
     id="g4780"
     style="font-size:11px;stroke-linecap:butt;stroke-linejoin:round;stroke-miterlimit:0;font-family:sans-serif"
     transform="translate(570,182)">
    <ellipse
       sodipodi:ry="20"
       sodipodi:rx="65"
       sodipodi:cy="20"
       sodipodi:cx="65"
       d="M 130,20 C 130,31.045695 100.89851,40 65,40 29.101491,40 0,31.045695 0,20 0,8.954305 29.101491,0 65,0 c 35.89851,0 65,8.954305 65,20 z"
       clip-path="url(#clipPath7)"
       id="ellipse4782"
       cy="20"
       ry="20"
       cx="65"
       rx="65"
       style="fill:none" />
  </g>
  <g
     id="g4784"
     style="font-size:11px;fill:#7acff5;stroke:#7acff5;font-family:sans-serif"
     transform="translate(720,242)">
    <ellipse
       sodipodi:ry="30"
       sodipodi:rx="70"
       sodipodi:cy="30"
       sodipodi:cx="70"
       d="M 140,30 C 140,46.568542 108.65993,60 70,60 31.340068,60 0,46.568542 0,30 0,13.431458 31.340068,0 70,0 c 38.65993,0 70,13.431458 70,30 z"
       clip-path="url(#clipPath8)"
       id="ellipse4786"
       cy="30"
       ry="30"
       cx="70"
       rx="70"
       style="stroke:none" />
  </g>
  <g
     id="g4788"
     style="font-size:11px;stroke-linecap:butt;stroke-linejoin:round;stroke-miterlimit:0;font-family:sans-serif"
     transform="translate(720,242)">
    <ellipse
       sodipodi:ry="30"
       sodipodi:rx="70"
       sodipodi:cy="30"
       sodipodi:cx="70"
       d="M 140,30 C 140,46.568542 108.65993,60 70,60 31.340068,60 0,46.568542 0,30 0,13.431458 31.340068,0 70,0 c 38.65993,0 70,13.431458 70,30 z"
       clip-path="url(#clipPath8)"
       id="ellipse4790"
       cy="30"
       ry="30"
       cx="70"
       rx="70"
       style="fill:none" />
  </g>
  <g
     id="g4792"
     style="font-size:11px;fill:#7acff5;stroke:#7acff5;font-family:sans-serif"
     transform="translate(510,262)">
    <ellipse
       sodipodi:ry="25"
       sodipodi:rx="75"
       sodipodi:cy="25"
       sodipodi:cx="75"
       d="M 150,25 C 150,38.807119 116.42136,50 75,50 33.578644,50 0,38.807119 0,25 0,11.192881 33.578644,0 75,0 c 41.42136,0 75,11.192881 75,25 z"
       clip-path="url(#clipPath9)"
       id="ellipse4794"
       cy="25"
       ry="25"
       cx="75"
       rx="75"
       style="stroke:none" />
  </g>
  <g
     id="g4796"
     style="font-size:11px;stroke-linecap:butt;stroke-linejoin:round;stroke-miterlimit:0;font-family:sans-serif"
     transform="translate(510,262)">
    <ellipse
       sodipodi:ry="25"
       sodipodi:rx="75"
       sodipodi:cy="25"
       sodipodi:cx="75"
       d="M 150,25 C 150,38.807119 116.42136,50 75,50 33.578644,50 0,38.807119 0,25 0,11.192881 33.578644,0 75,0 c 41.42136,0 75,11.192881 75,25 z"
       clip-path="url(#clipPath9)"
       id="ellipse4798"
       cy="25"
       ry="25"
       cx="75"
       rx="75"
       style="fill:none" />
  </g>
  <g
     id="g4800"
     transform="translate(510,262)"
     style="font-size:11px;font-family:sans-serif">
    <text
       clip-path="url(#clipPath10)"
       id="text4802"
       xml:space="preserve"
       style="stroke:none"
       y="22"
       x="12">Отключение из дерева</text>
    <text
       clip-path="url(#clipPath10)"
       id="text4804"
       xml:space="preserve"
       style="stroke:none"
       y="36"
       x="47">каталогов</text>
  </g>
  <g
     id="g4806"
     transform="translate(720,242)"
     style="font-size:11px;font-family:sans-serif">
    <text
       clip-path="url(#clipPath11)"
       id="text4808"
       xml:space="preserve"
       style="stroke:none"
       y="20"
       x="35">Сохранение</text>
    <text
       clip-path="url(#clipPath11)"
       id="text4810"
       xml:space="preserve"
       style="stroke:none"
       y="34"
       x="16">незафиксированых</text>
    <text
       clip-path="url(#clipPath11)"
       id="text4812"
       xml:space="preserve"
       style="stroke:none"
       y="48"
       x="39">изменений</text>
  </g>
  <g
     id="g4814"
     transform="translate(570,182)"
     style="font-size:11px;font-family:sans-serif">
    <text
       clip-path="url(#clipPath12)"
       id="text4816"
       xml:space="preserve"
       style="stroke:none"
       y="24"
       x="6">Отключение системы</text>
  </g>
  <g
     id="g4818"
     transform="translate(0,262)"
     style="font-size:11px;font-family:sans-serif">
    <text
       clip-path="url(#clipPath13)"
       id="text4820"
       xml:space="preserve"
       style="stroke:none"
       y="32"
       x="22">Измнение структуры</text>
    <text
       clip-path="url(#clipPath13)"
       id="text4822"
       xml:space="preserve"
       style="stroke:none"
       y="46"
       x="53">каталогов</text>
  </g>
  <g
     id="g4824"
     transform="translate(250,312)"
     style="font-size:11px;font-family:sans-serif">
    <text
       clip-path="url(#clipPath14)"
       id="text4826"
       xml:space="preserve"
       style="stroke:none"
       y="24"
       x="8">Редактирование файлов</text>
  </g>
  <g
     id="g4828"
     transform="translate(220,192)"
     style="font-size:11px;font-family:sans-serif">
    <text
       clip-path="url(#clipPath15)"
       id="text4830"
       xml:space="preserve"
       style="stroke:none"
       y="34"
       x="8">Использование системы</text>
  </g>
  <g
     id="g4832"
     transform="translate(220,82)"
     style="font-size:11px;font-family:sans-serif">
    <text
       clip-path="url(#clipPath16)"
       id="text4834"
       xml:space="preserve"
       style="stroke:none"
       y="37"
       x="19">Монтирование в</text>
    <text
       clip-path="url(#clipPath16)"
       id="text4836"
       xml:space="preserve"
       style="stroke:none"
       y="51"
       x="15">дерево каталогов</text>
  </g>
  <g
     id="g4838"
     transform="translate(380,2)"
     style="font-size:11px;font-family:sans-serif">
    <text
       clip-path="url(#clipPath17)"
       id="text4840"
       xml:space="preserve"
       style="stroke:none"
       y="27"
       x="22">Подключение</text>
    <text
       clip-path="url(#clipPath17)"
       id="text4842"
       xml:space="preserve"
       style="stroke:none"
       y="41"
       x="37">системы</text>
  </g>
  <g
     id="g4844"
     transform="translate(418,232)"
     style="font-size:11px;font-family:sans-serif">
    <text
       clip-path="url(#clipPath18)"
       id="text4846"
       xml:space="preserve"
       style="stroke:none"
       y="11"
       x="10">Пользователь</text>
  </g>
  <g
     id="g4848"
     style="font-size:11px;stroke-linecap:butt;stroke-linejoin:round;font-family:sans-serif"
     transform="translate(400,12)">
    <line
       clip-path="url(#clipPath19)"
       id="line4850"
       y2="50"
       style="fill:none"
       y1="159"
       x2="50"
       x1="50" />
  </g>
  <g
     id="g4852"
     style="font-size:11px;stroke-linecap:butt;stroke-linejoin:round;font-family:sans-serif"
     transform="translate(282,2)">
    <line
       clip-path="url(#clipPath20)"
       id="line4854"
       y2="50"
       style="fill:none"
       y1="92"
       x2="112"
       x1="50" />
  </g>
  <g
     id="g4856"
     style="font-size:11px;stroke-linecap:butt;stroke-linejoin:round;font-family:sans-serif"
     transform="translate(320,172)">
    <line
       clip-path="url(#clipPath21)"
       id="line4858"
       y2="50"
       style="fill:none"
       y1="50"
       x2="50"
       x1="129" />
  </g>
  <g
     id="g4860"
     style="font-size:11px;stroke-linecap:butt;stroke-linejoin:round;stroke-dasharray:4;font-family:sans-serif"
     transform="translate(200,196)">
    <line
       clip-path="url(#clipPath22)"
       id="line4862"
       y2="116"
       style="fill:none"
       y1="50"
       x2="50"
       x1="50" />
    <line
       clip-path="url(#clipPath22)"
       id="line4864"
       y2="104"
       style="fill:none;stroke-dasharray:none"
       y1="116"
       x2="56"
       x1="50" />
    <line
       clip-path="url(#clipPath22)"
       id="line4866"
       y2="104"
       style="fill:none;stroke-dasharray:none"
       y1="116"
       x2="44"
       x1="50" />
  </g>
  <g
     id="g4868"
     style="font-size:11px;stroke-linecap:butt;stroke-linejoin:round;stroke-dasharray:4;font-family:sans-serif"
     transform="translate(79,196)">
    <line
       clip-path="url(#clipPath23)"
       id="line4870"
       y2="73"
       style="fill:none"
       y1="50"
       x2="50"
       x1="168" />
    <line
       clip-path="url(#clipPath23)"
       id="line4872"
       y2="76"
       style="fill:none;stroke-dasharray:none"
       y1="73"
       x2="62"
       x1="50" />
    <line
       clip-path="url(#clipPath23)"
       id="line4874"
       y2="64"
       style="fill:none;stroke-dasharray:none"
       y1="73"
       x2="59"
       x1="50" />
  </g>
  <g
     id="g4876"
     style="font-size:11px;stroke-linecap:butt;stroke-linejoin:round;font-family:sans-serif"
     transform="translate(430,162)">
    <line
       clip-path="url(#clipPath24)"
       id="line4878"
       y2="50"
       style="fill:none"
       y1="50"
       x2="148"
       x1="50" />
  </g>
  <g
     id="g4880"
     style="font-size:11px;stroke-linecap:butt;stroke-linejoin:round;stroke-dasharray:4;font-family:sans-serif"
     transform="translate(641,163)">
    <line
       clip-path="url(#clipPath25)"
       id="line4882"
       y2="91"
       style="fill:none"
       y1="50"
       x2="91"
       x1="50" />
    <line
       clip-path="url(#clipPath25)"
       id="line4884"
       y2="78"
       style="fill:none;stroke-dasharray:none"
       y1="91"
       x2="87"
       x1="91" />
    <line
       clip-path="url(#clipPath25)"
       id="line4886"
       y2="87"
       style="fill:none;stroke-dasharray:none"
       y1="91"
       x2="78"
       x1="91" />
  </g>
  <g
     id="g4888"
     style="font-size:11px;stroke-linecap:butt;stroke-linejoin:round;stroke-dasharray:4;font-family:sans-serif"
     transform="translate(520,172)">
    <line
       clip-path="url(#clipPath26)"
       id="line4890"
       y2="90"
       style="fill:none"
       y1="50"
       x2="50"
       x1="50" />
    <line
       clip-path="url(#clipPath26)"
       id="line4892"
       y2="78"
       style="fill:none;stroke-dasharray:none"
       y1="90"
       x2="56"
       x1="50" />
    <line
       clip-path="url(#clipPath26)"
       id="line4894"
       y2="78"
       style="fill:none;stroke-dasharray:none"
       y1="90"
       x2="44"
       x1="50" />
  </g>
  <g
     id="g4896"
     transform="translate(522,233)"
     style="font-size:11px;font-family:sans-serif">
    <text
       clip-path="url(#clipPath27)"
       id="text4898"
       xml:space="preserve"
       style="stroke:none"
       y="11"
       x="9">&lt;&lt;Include&gt;&gt;</text>
  </g>
  <g
     id="g4900"
     transform="translate(648,231)"
     style="font-size:11px;font-family:sans-serif">
    <text
       clip-path="url(#clipPath27)"
       id="text4902"
       xml:space="preserve"
       style="stroke:none"
       y="11"
       x="9">&lt;&lt;Include&gt;&gt;</text>
  </g>
  <g
     id="g4904"
     transform="translate(136,244)"
     style="font-size:11px;font-family:sans-serif">
    <text
       clip-path="url(#clipPath27)"
       id="text4906"
       xml:space="preserve"
       style="stroke:none"
       y="11"
       x="9">&lt;&lt;Include&gt;&gt;</text>
  </g>
  <g
     id="g4908"
     transform="translate(195,302)"
     style="font-size:11px;font-family:sans-serif">
    <text
       clip-path="url(#clipPath27)"
       id="text4910"
       xml:space="preserve"
       style="stroke:none"
       y="11"
       x="9">&lt;&lt;Include&gt;&gt;</text>
  </g>
  <g
     id="g4912"
     transform="translate(419,85)"
     style="font-size:11px;font-family:sans-serif">
    <text
       clip-path="url(#clipPath28)"
       id="text4914"
       xml:space="preserve"
       style="stroke:none"
       y="11"
       x="10">Запуск приложения</text>
  </g>
</svg>
